<svg xmlns="http://www.w3.org/2000/svg" xmlns:xlink="http://www.w3.org/1999/xlink" width="500" zoomAndPan="magnify" viewBox="0 0 375 374.999991" height="500" preserveAspectRatio="xMidYMid meet" version="1.0"><defs><clipPath id="b4b116129d"><path d="M 64 249 L 188 249 L 188 332.5 L 64 332.5 Z M 64 249 " clip-rule="nonzero"/></clipPath><clipPath id="6ba7cd5c3f"><path d="M 199 136 L 341 136 L 341 332.5 L 199 332.5 Z M 199 136 " clip-rule="nonzero"/></clipPath><clipPath id="9c2d4272b8"><path d="M 45 42.410156 L 188 42.410156 L 188 264 L 45 264 Z M 45 42.410156 " clip-rule="nonzero"/></clipPath><clipPath id="34f5ec301b"><path d="M 199 42.410156 L 320 42.410156 L 320 237 L 199 237 Z M 199 42.410156 " clip-rule="nonzero"/></clipPath></defs><path fill="#000a39" d="M 375 296.550781 C 375 339.871094 339.878906 375 296.550781 375 L 78.449219 375 C 35.121094 375 0 339.871094 0 296.550781 L 0 78.449219 C 0 35.125 35.121094 0 78.449219 0 L 296.550781 0 C 339.878906 0 375 35.125 375 78.449219 L 375 296.550781 " fill-opacity="1" fill-rule="nonzero"/><path fill="#000a39" d="M 302.59375 187.5 C 302.449219 221.644531 287.332031 253.597656 261.421875 275.757812 C 235.785156 297.675781 200.214844 306.78125 167.128906 300.828125 C 134.109375 294.878906 105.164062 274.410156 88.117188 245.585938 C 70.535156 215.859375 67.929688 179.316406 79.695312 147.015625 C 90.90625 116.25 116.445312 91.132812 147.015625 79.695312 C 179.324219 67.617188 215.8125 70.84375 245.585938 88.117188 C 280.769531 108.53125 302.417969 146.984375 302.59375 187.5 C 302.632812 197.488281 318.128906 197.496094 318.089844 187.5 C 317.929688 151.582031 303.050781 117.007812 276.925781 92.339844 C 250.746094 67.625 214.695312 54.863281 178.824219 57.214844 C 143.3125 59.539062 109.664062 76.761719 86.984375 104.179688 C 63.601562 132.457031 53.3125 169.378906 58.238281 205.699219 C 63.035156 241.054688 82.753906 272.558594 111.367188 293.570312 C 140.679688 315.09375 178.621094 322.382812 214.058594 315.371094 C 242.8125 309.675781 269.378906 293.351562 288.015625 270.820312 C 307.382812 247.398438 317.960938 217.878906 318.089844 187.5 C 318.128906 177.503906 302.632812 177.511719 302.59375 187.5 " fill-opacity="1" fill-rule="nonzero"/><g clip-path="url(#b4b116129d)"><path fill="#ff3131" d="M 187.832031 249.492188 L 187.832031 292.632812 C 187.832031 314.753906 169.96875 332.613281 147.851562 332.613281 C 131.707031 332.613281 117.832031 322.996094 111.582031 309.257812 C 119.273438 305.890625 125.25 302.042969 125.25 302.042969 C 123.875 302.25 122.433594 302.386719 120.855469 302.59375 C 119.960938 302.59375 118.929688 302.59375 117.902344 302.59375 C 117.351562 302.59375 116.871094 302.59375 116.527344 302.59375 C 115.976562 302.59375 115.496094 302.59375 114.945312 302.59375 C 114.398438 302.386719 113.917969 302.386719 113.574219 302.386719 C 113.023438 302.386719 112.542969 302.386719 111.992188 302.183594 C 111.441406 302.183594 111.101562 302.183594 110.617188 301.976562 C 110.070312 301.976562 109.726562 301.976562 109.246094 301.769531 C 89.253906 298.816406 72.425781 285.488281 64.730469 267.558594 C 64.9375 267.558594 65.28125 267.558594 65.417969 267.765625 C 65.761719 267.765625 66.105469 267.765625 66.3125 267.972656 C 66.65625 267.972656 66.863281 268.179688 67.203125 268.179688 C 67.410156 268.179688 67.753906 268.382812 68.097656 268.382812 C 68.304688 268.382812 68.648438 268.589844 68.785156 268.589844 C 69.128906 268.589844 69.335938 268.589844 69.679688 268.796875 C 70.019531 268.796875 70.226562 268.796875 70.570312 269.003906 C 70.777344 269.003906 71.121094 269.003906 71.464844 269.003906 C 71.667969 269.207031 72.011719 269.207031 72.152344 269.207031 C 72.496094 269.414062 72.835938 269.414062 73.042969 269.414062 C 73.386719 269.414062 73.59375 269.621094 73.9375 269.621094 C 74.28125 269.621094 74.484375 269.621094 74.828125 269.621094 C 75.035156 269.828125 75.378906 269.828125 75.722656 269.828125 C 75.929688 269.828125 76.273438 270.03125 76.410156 270.03125 L 76.617188 270.03125 C 76.820312 270.03125 77.164062 270.03125 77.300781 270.03125 C 77.644531 270.238281 77.988281 270.238281 78.195312 270.238281 L 79.089844 270.238281 C 79.433594 270.445312 79.636719 270.445312 79.980469 270.445312 C 80.324219 270.445312 80.53125 270.445312 80.875 270.445312 C 81.082031 270.652344 81.425781 270.652344 81.769531 270.652344 C 81.972656 270.652344 82.316406 270.652344 82.660156 270.652344 C 82.867188 270.652344 83.210938 270.652344 83.347656 270.859375 C 83.691406 270.859375 84.035156 270.859375 84.242188 270.859375 C 84.585938 270.859375 84.925781 270.859375 85.132812 270.859375 C 85.476562 270.859375 85.683594 270.859375 86.027344 270.859375 C 86.371094 270.859375 86.578125 271.0625 86.917969 271.0625 C 87.261719 271.0625 87.46875 271.0625 87.8125 271.0625 L 90.285156 271.0625 C 90.628906 271.0625 90.972656 271.0625 91.179688 271.0625 L 92.964844 271.0625 C 93.308594 271.0625 93.515625 271.0625 93.859375 271.0625 L 94.75 271.0625 C 94.957031 271.0625 95.300781 271.0625 95.644531 271.0625 L 96.332031 271.0625 C 97.019531 271.0625 97.566406 271.0625 98.117188 271.0625 L 100.589844 271.0625 C 101.277344 270.859375 101.828125 270.859375 102.375 270.859375 L 103.957031 270.859375 L 104.847656 270.652344 L 106.429688 270.652344 L 107.320312 270.445312 L 108.214844 270.445312 L 108.902344 270.238281 L 110.480469 270.238281 L 111.375 270.03125 L 112.0625 270.03125 L 112.953125 269.828125 L 113.640625 269.828125 L 114.535156 269.621094 L 115.222656 269.621094 L 116.113281 269.414062 L 116.800781 269.414062 L 117.488281 269.207031 L 118.382812 269.003906 C 140.980469 265.773438 165.023438 258.765625 187.832031 249.492188 Z M 187.832031 249.492188 " fill-opacity="1" fill-rule="nonzero"/></g><g clip-path="url(#6ba7cd5c3f)"><path fill="#ff3131" d="M 199.714844 244.203125 L 199.714844 292.632812 C 199.714844 314.753906 217.574219 332.613281 239.554688 332.613281 C 255.699219 332.613281 269.574219 322.996094 276.03125 309.257812 C 268.339844 305.890625 262.15625 302.042969 262.15625 302.042969 C 263.53125 302.25 265.109375 302.386719 266.550781 302.59375 C 267.582031 302.59375 268.683594 302.59375 269.507812 302.59375 C 270.054688 302.59375 270.535156 302.59375 271.085938 302.59375 C 271.636719 302.59375 272.117188 302.59375 272.460938 302.59375 L 272.667969 302.59375 C 273.011719 302.386719 273.558594 302.386719 274.039062 302.386719 C 274.589844 302.386719 275.070312 302.386719 275.414062 302.183594 L 275.621094 302.183594 C 275.964844 302.183594 276.511719 302.183594 276.992188 301.976562 C 277.542969 301.976562 277.886719 301.976562 278.367188 301.769531 C 306.257812 297.578125 327.621094 273.332031 327.621094 244.273438 C 327.621094 238.503906 326.726562 232.734375 325.148438 227.445312 C 319.035156 227.992188 312.164062 226.894531 312.164062 226.894531 C 329.339844 216.726562 340.949219 198.113281 340.949219 176.746094 C 340.949219 161.15625 334.832031 146.933594 324.804688 136.5625 C 324.597656 137.113281 324.253906 137.796875 323.910156 138.347656 C 323.566406 138.898438 323.222656 139.585938 322.882812 140.132812 C 322.539062 140.820312 322.332031 141.371094 321.988281 141.921875 C 321.644531 142.605469 321.300781 143.15625 320.957031 143.707031 C 320.613281 144.394531 320.269531 144.941406 319.925781 145.492188 C 319.582031 146.042969 319.242188 146.730469 318.898438 147.277344 C 318.554688 147.828125 318.210938 148.515625 317.867188 149.066406 C 317.523438 149.613281 317.179688 150.09375 316.628906 150.851562 C 316.285156 151.398438 315.941406 151.882812 315.597656 152.429688 C 315.257812 152.980469 314.914062 153.667969 314.363281 154.214844 C 314.019531 154.765625 313.675781 155.246094 313.332031 155.796875 C 312.988281 156.484375 312.441406 157.03125 312.097656 157.582031 C 311.753906 158.132812 311.203125 158.613281 310.859375 159.164062 C 310.515625 159.710938 309.964844 160.191406 309.625 160.949219 C 309.28125 161.496094 308.730469 161.980469 308.386719 162.527344 C 308.042969 163.078125 307.492188 163.558594 307.148438 164.109375 C 306.601562 164.65625 306.257812 165.140625 305.777344 165.6875 C 305.433594 166.238281 304.882812 166.71875 304.539062 167.269531 C 303.992188 167.816406 303.648438 168.296875 303.167969 168.847656 C 302.824219 169.398438 302.273438 169.878906 301.929688 170.429688 C 301.378906 170.976562 301.035156 171.457031 300.554688 172.007812 C 300.210938 172.558594 299.664062 173.039062 299.183594 173.589844 C 298.839844 174.136719 298.289062 174.617188 297.808594 175.167969 C 297.464844 175.71875 296.914062 176.199219 296.433594 176.746094 C 296.089844 177.089844 295.542969 177.640625 295.058594 178.121094 C 294.71875 178.671875 294.167969 179.152344 293.6875 179.703125 C 293.136719 180.25 292.792969 180.59375 292.3125 181.074219 C 291.761719 181.625 291.28125 182.105469 290.9375 182.65625 C 290.390625 183 289.910156 183.546875 289.359375 184.03125 C 288.808594 184.578125 288.464844 185.058594 287.984375 185.402344 C 287.433594 185.953125 286.953125 186.433594 286.40625 186.984375 C 285.855469 187.328125 285.511719 187.875 285.03125 188.355469 C 284.480469 188.699219 284 189.25 283.453125 189.730469 C 282.902344 190.074219 282.421875 190.625 281.871094 191.105469 C 281.320312 191.449219 280.839844 191.996094 280.292969 192.480469 C 279.742188 192.820312 279.398438 193.371094 278.917969 193.851562 C 278.367188 194.195312 277.886719 194.746094 277.335938 195.089844 C 276.789062 195.636719 276.308594 195.980469 275.757812 196.460938 C 275.207031 197.011719 274.726562 197.355469 274.175781 197.835938 C 273.628906 198.179688 273.148438 198.730469 272.597656 199.074219 C 272.046875 199.621094 271.359375 199.964844 270.8125 200.445312 C 270.261719 200.789062 269.78125 201.339844 269.230469 201.683594 C 268.683594 202.234375 268.203125 202.578125 267.652344 203.058594 C 267.101562 203.402344 266.621094 203.746094 266.070312 204.292969 C 265.523438 204.636719 265.042969 205.1875 264.285156 205.53125 C 263.738281 205.875 263.253906 206.421875 262.707031 206.765625 C 262.15625 207.316406 261.675781 207.660156 261.125 208.003906 C 260.578125 208.554688 260.09375 208.894531 259.339844 209.238281 C 258.789062 209.789062 258.308594 210.132812 257.761719 210.476562 C 257.210938 210.820312 256.730469 211.371094 255.972656 211.710938 C 255.425781 212.054688 254.945312 212.398438 254.394531 212.949219 C 253.84375 213.292969 253.363281 213.636719 252.609375 213.980469 C 252.058594 214.527344 251.578125 214.871094 251.027344 215.214844 C 250.480469 215.558594 249.996094 215.902344 249.242188 216.453125 C 248.691406 216.796875 248.210938 217.140625 247.664062 217.484375 C 247.113281 217.828125 246.425781 218.171875 245.875 218.511719 C 245.328125 218.855469 244.847656 219.40625 244.296875 219.75 C 243.609375 220.09375 243.058594 220.4375 242.511719 220.78125 C 241.960938 221.125 241.480469 221.46875 240.722656 221.8125 C 240.175781 222.152344 239.695312 222.496094 239.144531 222.839844 C 238.59375 223.183594 237.90625 223.527344 237.359375 223.871094 C 236.808594 224.214844 236.328125 224.558594 235.777344 224.902344 C 235.089844 225.246094 234.542969 225.589844 233.992188 225.933594 C 233.441406 226.277344 232.960938 226.621094 232.207031 226.960938 C 222.039062 233.214844 211.117188 238.984375 199.714844 244.203125 Z M 199.714844 244.203125 " fill-opacity="1" fill-rule="nonzero"/></g><g clip-path="url(#9c2d4272b8)"><path fill="#ffffff" d="M 150.324219 92.875 C 159.253906 94.796875 168.046875 89.027344 169.96875 80.097656 C 171.894531 71.167969 166.261719 62.234375 157.332031 60.3125 C 148.195312 58.390625 139.46875 64.160156 137.546875 73.089844 C 135.625 82.019531 141.324219 90.949219 150.324219 92.875 Z M 156.4375 176.335938 C 163.648438 177.710938 170.449219 173.382812 172.03125 166.167969 C 173.609375 159.164062 169.078125 152.15625 162 150.714844 C 154.789062 149.132812 147.988281 153.667969 146.40625 160.742188 C 144.828125 167.75 149.429688 174.753906 156.4375 176.335938 Z M 97.84375 162.664062 C 93.101562 161.773438 88.570312 162.664062 84.722656 165.136719 C 81.011719 167.613281 78.265625 171.457031 77.164062 175.992188 C 76.273438 180.730469 77.164062 185.472656 79.636719 189.113281 C 82.109375 192.753906 85.957031 195.570312 90.492188 196.667969 C 95.230469 197.699219 99.972656 196.667969 103.613281 194.195312 C 107.320312 191.722656 110.070312 188.082031 111.167969 183.34375 C 112.199219 178.601562 111.167969 174.070312 108.695312 170.222656 C 106.429688 166.582031 102.582031 163.765625 97.84375 162.664062 Z M 70.84375 194.8125 C 74.691406 200.789062 80.875 205.324219 88.363281 206.902344 C 95.917969 208.484375 103.269531 206.902344 109.246094 203.058594 C 110.480469 202.371094 111.71875 201.476562 112.75 200.445312 L 128.203125 212.878906 C 127.515625 214.253906 126.96875 215.695312 126.625 217.070312 C 124.496094 227.101562 130.816406 236.855469 140.84375 238.984375 C 150.875 241.113281 160.492188 234.792969 162.757812 224.765625 C 164.886719 214.941406 158.566406 205.117188 148.539062 202.988281 C 143.109375 201.753906 137.683594 203.195312 133.425781 206.355469 L 118.175781 193.921875 C 119.550781 191.3125 120.785156 188.632812 121.335938 185.472656 C 123.121094 178.121094 121.542969 170.566406 117.625 164.589844 C 115.703125 161.636719 113.09375 158.957031 110.277344 156.894531 L 119.410156 138.28125 L 119.753906 138.484375 C 129.578125 140.613281 139.402344 134.296875 141.53125 124.265625 C 143.660156 114.238281 137.339844 104.621094 127.515625 102.351562 C 117.488281 100.222656 107.734375 106.542969 105.605469 116.574219 C 104.023438 123.578125 106.632812 130.449219 111.925781 134.640625 L 102.652344 153.253906 C 101.757812 152.910156 100.863281 152.707031 100.175781 152.566406 C 92.621094 150.988281 85.066406 152.566406 79.15625 156.414062 C 73.25 160.261719 68.648438 166.445312 67.066406 173.929688 C 65.488281 181.417969 67 188.835938 70.84375 194.8125 Z M 155.199219 42.382812 C 173.265625 42.382812 187.832031 57.085938 187.832031 75.152344 L 187.832031 241.730469 C 164.886719 251.347656 140.5 258.765625 116.59375 261.925781 L 115.910156 262.132812 L 115.015625 262.132812 L 114.328125 262.339844 L 113.433594 262.339844 L 112.75 262.546875 L 111.855469 262.546875 L 111.167969 262.75 L 110.277344 262.75 L 109.589844 262.957031 L 108.695312 262.957031 L 107.800781 263.164062 L 106.910156 263.164062 L 106.222656 263.371094 L 104.503906 263.371094 L 103.613281 263.574219 L 101.828125 263.574219 L 101.140625 263.78125 L 98.460938 263.78125 C 98.117188 263.78125 97.773438 263.78125 97.566406 263.78125 L 96.675781 263.78125 C 96.332031 263.988281 95.988281 263.988281 95.78125 263.988281 C 95.4375 263.988281 95.09375 263.988281 94.886719 263.988281 L 94.203125 263.988281 C 93.859375 263.988281 93.515625 263.988281 93.308594 263.988281 C 92.964844 263.988281 92.621094 263.988281 92.414062 263.988281 C 92.070312 263.988281 91.726562 263.988281 91.523438 263.988281 L 91.316406 263.988281 C 91.109375 263.988281 90.765625 263.988281 90.421875 263.988281 C 90.21875 263.988281 89.875 263.988281 89.53125 263.988281 L 88.636719 263.78125 C 88.429688 263.78125 88.085938 263.78125 87.742188 263.78125 C 87.402344 263.78125 87.195312 263.78125 86.851562 263.78125 C 86.507812 263.78125 86.300781 263.78125 85.957031 263.78125 L 85.066406 263.78125 C 84.722656 263.574219 84.378906 263.574219 84.171875 263.574219 C 83.828125 263.574219 83.484375 263.574219 83.277344 263.574219 C 82.933594 263.574219 82.59375 263.574219 82.386719 263.574219 C 82.042969 263.371094 81.699219 263.371094 81.355469 263.371094 C 81.148438 263.371094 80.804688 263.371094 80.460938 263.371094 C 80.257812 263.371094 79.914062 263.164062 79.570312 263.164062 C 79.363281 263.164062 79.019531 263.164062 78.675781 263.164062 C 78.332031 262.957031 78.128906 262.957031 77.785156 262.957031 C 77.441406 262.957031 77.234375 262.957031 76.890625 262.957031 C 76.546875 262.75 76.339844 262.75 75.996094 262.75 C 75.652344 262.75 75.449219 262.546875 75.105469 262.546875 C 74.761719 262.546875 74.554688 262.546875 74.210938 262.339844 C 73.867188 262.339844 73.660156 262.339844 73.320312 262.339844 C 72.976562 262.132812 72.769531 262.132812 72.425781 262.132812 C 72.082031 262.132812 71.875 261.925781 71.53125 261.925781 C 71.1875 261.925781 70.984375 261.722656 70.640625 261.722656 C 70.296875 261.722656 70.089844 261.515625 69.746094 261.515625 C 69.402344 261.515625 69.195312 261.308594 68.851562 261.308594 C 68.511719 261.308594 68.304688 261.101562 67.960938 261.101562 C 67.617188 261.101562 67.410156 260.898438 67.066406 260.898438 C 66.722656 260.898438 66.519531 260.691406 66.175781 260.691406 C 65.96875 260.484375 65.625 260.484375 65.28125 260.484375 C 65.074219 260.277344 64.730469 260.277344 64.59375 260.140625 C 64.25 260.140625 63.90625 260.140625 63.703125 259.933594 C 63.359375 259.933594 63.152344 259.730469 62.808594 259.730469 C 62.464844 259.523438 62.257812 259.523438 61.914062 259.386719 C 61.710938 259.386719 61.367188 259.179688 61.023438 259.179688 C 59.785156 254.441406 59.097656 249.355469 59.097656 244.066406 C 59.097656 238.296875 59.992188 232.527344 61.570312 227.238281 C 67.6875 227.785156 74.554688 226.6875 74.554688 226.6875 C 57.382812 216.519531 45.976562 197.90625 45.976562 176.542969 C 45.976562 157.101562 55.457031 139.722656 70.160156 129.210938 C 76.476562 138.347656 92.070312 136.21875 92.070312 136.21875 C 84.035156 130.242188 78.953125 120.761719 78.953125 109.910156 C 78.953125 92.050781 93.515625 77.28125 111.582031 77.28125 C 111.785156 77.28125 111.925781 77.28125 112.265625 77.28125 C 115.082031 85.523438 125.59375 89.714844 125.59375 89.714844 C 123.328125 85.316406 121.882812 80.234375 121.882812 74.808594 C 122.433594 57.085938 137.132812 42.382812 155.199219 42.382812 Z M 155.199219 42.382812 " fill-opacity="1" fill-rule="nonzero"/></g><g clip-path="url(#34f5ec301b)"><path fill="#2e9ddd" d="M 237.289062 92.875 C 228.359375 94.796875 219.429688 89.027344 217.503906 80.097656 C 215.582031 71.167969 221.351562 62.234375 230.28125 60.3125 C 239.210938 58.390625 248.144531 64.160156 250.066406 73.089844 C 251.988281 82.019531 246.21875 90.949219 237.289062 92.875 Z M 230.96875 176.335938 C 223.960938 177.710938 216.957031 173.382812 215.375 166.167969 C 214.003906 159.164062 218.535156 152.15625 225.542969 150.714844 C 232.550781 149.132812 239.554688 153.667969 241 160.742188 C 242.511719 167.75 237.976562 174.753906 230.96875 176.335938 Z M 276.925781 185.679688 C 276.71875 184.992188 276.582031 184.097656 276.375 183.410156 C 275.34375 178.671875 276.375 174.136719 278.644531 170.289062 C 281.117188 166.582031 284.960938 163.832031 289.703125 162.734375 C 292.65625 162.046875 295.816406 162.390625 298.632812 163.285156 L 298.425781 163.488281 C 298.082031 164.039062 297.535156 164.519531 297.191406 165.070312 C 296.640625 165.621094 296.296875 165.964844 295.816406 166.445312 C 295.472656 166.992188 294.921875 167.472656 294.441406 168.023438 C 294.097656 168.574219 293.550781 169.054688 293.207031 169.605469 C 292.65625 170.152344 292.3125 170.632812 291.832031 170.976562 C 291.28125 171.527344 290.9375 172.007812 290.457031 172.558594 C 289.910156 173.105469 289.566406 173.589844 289.085938 173.929688 C 288.535156 174.480469 288.191406 174.960938 287.710938 175.511719 C 287.160156 176.0625 286.679688 176.40625 286.335938 176.886719 C 285.785156 177.433594 285.304688 177.914062 284.757812 178.257812 C 284.414062 178.808594 283.863281 179.289062 283.382812 179.839844 C 282.832031 180.183594 282.488281 180.730469 282.007812 181.210938 C 281.460938 181.554688 280.976562 182.105469 280.429688 182.585938 C 279.878906 182.929688 279.535156 183.480469 279.054688 183.960938 C 278.503906 184.304688 278.023438 184.855469 277.476562 185.335938 Z M 232.34375 42.382812 C 214.277344 42.382812 199.714844 57.085938 199.714844 75.152344 L 199.714844 236.304688 C 208.300781 232.25 216.542969 228.0625 224.648438 223.527344 C 223.277344 214.046875 229.527344 204.910156 239.007812 202.988281 C 243.882812 201.957031 248.625 202.78125 252.675781 205.460938 L 253.570312 204.773438 C 254.117188 204.226562 254.601562 203.882812 255.148438 203.539062 C 255.699219 203.195312 256.179688 202.644531 256.730469 202.300781 C 257.417969 201.957031 257.964844 201.410156 258.515625 201.066406 C 259.066406 200.722656 259.546875 200.171875 260.09375 199.828125 C 260.644531 199.484375 261.125 198.9375 261.675781 198.59375 C 262.226562 198.042969 262.707031 197.699219 263.253906 197.355469 C 263.804688 196.804688 264.285156 196.460938 264.835938 195.980469 C 265.386719 195.636719 265.867188 195.089844 266.414062 194.746094 C 266.964844 194.402344 267.445312 193.851562 267.996094 193.507812 L 268.683594 192.820312 C 267.652344 190.554688 266.550781 188.082031 266.070312 185.472656 C 264.492188 178.121094 266.070312 170.566406 269.917969 164.589844 C 271.84375 161.636719 274.316406 158.957031 277.269531 156.894531 L 268.132812 138.28125 L 267.789062 138.484375 C 257.761719 140.613281 248.144531 134.296875 245.875 124.265625 C 243.746094 114.238281 250.066406 104.621094 260.09375 102.351562 C 270.125 100.222656 279.742188 106.542969 282.007812 116.574219 C 283.382812 123.578125 280.773438 130.449219 275.6875 134.640625 L 284.824219 153.253906 C 285.71875 152.910156 286.609375 152.707031 287.433594 152.566406 C 293.753906 151.195312 300.074219 152.019531 305.296875 154.699219 L 305.984375 153.804688 C 306.324219 153.253906 306.667969 152.773438 307.011719 152.222656 C 307.5625 151.675781 307.90625 151.195312 308.25 150.4375 C 308.59375 149.890625 308.9375 149.40625 309.484375 148.859375 C 309.828125 148.308594 310.171875 147.828125 310.515625 147.277344 C 310.859375 146.589844 311.203125 146.042969 311.546875 145.492188 C 311.890625 144.941406 312.234375 144.460938 312.578125 143.707031 C 312.921875 143.15625 313.265625 142.675781 313.609375 142.125 C 313.949219 141.4375 314.292969 140.890625 314.636719 140.339844 C 314.980469 139.789062 315.324219 139.105469 315.667969 138.554688 C 316.011719 138.003906 316.355469 137.523438 316.5625 136.769531 C 316.90625 136.21875 317.25 135.738281 317.589844 134.980469 C 317.933594 134.433594 318.140625 133.953125 318.484375 133.195312 C 318.828125 132.648438 319.171875 132.164062 319.378906 131.410156 C 318.484375 130.722656 317.589844 130.035156 316.5625 129.28125 C 310.242188 138.417969 294.785156 136.289062 294.785156 136.289062 C 302.683594 130.3125 307.90625 120.832031 307.90625 109.976562 C 307.90625 92.117188 293.207031 77.347656 275.277344 77.347656 C 274.933594 77.347656 274.726562 77.347656 274.589844 77.347656 C 271.773438 85.59375 261.058594 89.78125 261.058594 89.78125 C 263.53125 85.386719 264.765625 80.300781 264.765625 74.875 C 264.972656 57.085938 250.410156 42.382812 232.34375 42.382812 Z M 232.34375 42.382812 " fill-opacity="1" fill-rule="nonzero"/></g><path fill="#ff3131" d="M 322.882812 50.628906 C 342.664062 69.242188 341.632812 95.691406 332.015625 121.105469 C 314.84375 166.511719 273.285156 202.988281 232.410156 227.238281 C 198.410156 247.433594 157.191406 263.714844 117.695312 269.003906 C 90.011719 272.851562 52.09375 272.367188 32.308594 249.355469 C 24.410156 240.21875 20.769531 229.023438 20.21875 217.070312 C 20.011719 213.222656 20.21875 209.171875 20.5625 205.324219 C 18.980469 209.171875 17.609375 213.019531 16.507812 217.070312 C 8.265625 245.304688 14.929688 268.796875 40.347656 284.941406 C 43.503906 287.070312 46.804688 288.785156 50.375 290.367188 C 63.359375 296.480469 77.371094 299.296875 91.589844 299.847656 C 107.390625 300.394531 123.328125 298.058594 138.78125 294.214844 C 173.472656 285.625 207.546875 268.589844 237.152344 248.945312 C 271.703125 226.136719 306.394531 195.777344 330.4375 161.773438 C 339.917969 148.445312 348.847656 133.195312 353.382812 117.398438 C 356.882812 105.308594 358.257812 91.980469 353.722656 79.890625 C 348.640625 65.875 336.894531 56.742188 322.882812 50.628906 Z M 322.882812 50.628906 " fill-opacity="1" fill-rule="nonzero"/></svg>