<svg xmlns="http://www.w3.org/2000/svg" xmlns:xlink="http://www.w3.org/1999/xlink" width="300" zoomAndPan="magnify" viewBox="0 0 224.87999 74.999997" height="100" preserveAspectRatio="xMidYMid meet" version="1.0"><defs><g/><clipPath id="57b056ac1a"><path d="M 12 46 L 32 46 L 32 59.101562 L 12 59.101562 Z M 12 46 " clip-rule="nonzero"/></clipPath><clipPath id="71e0727b5e"><path d="M 33 29 L 55 29 L 55 59.101562 L 33 59.101562 Z M 33 29 " clip-rule="nonzero"/></clipPath><clipPath id="376c3a0e61"><path d="M 9 15.648438 L 32 15.648438 L 32 50 L 9 50 Z M 9 15.648438 " clip-rule="nonzero"/></clipPath><clipPath id="9e3d11f735"><path d="M 33 15.648438 L 52 15.648438 L 52 45 L 33 45 Z M 33 15.648438 " clip-rule="nonzero"/></clipPath><clipPath id="8ab1fcbb9a"><path d="M 5 16 L 56.761719 16 L 56.761719 55 L 5 55 Z M 5 16 " clip-rule="nonzero"/></clipPath><clipPath id="0df877291d"><path d="M 0.523438 9.261719 L 56.742188 9.261719 L 56.742188 65.480469 L 0.523438 65.480469 Z M 0.523438 9.261719 " clip-rule="nonzero"/></clipPath><clipPath id="5558e73dca"><path d="M 10 46 L 29 46 L 29 59.101562 L 10 59.101562 Z M 10 46 " clip-rule="nonzero"/></clipPath><clipPath id="3fe142be31"><path d="M 30 29 L 52 29 L 52 59.101562 L 30 59.101562 Z M 30 29 " clip-rule="nonzero"/></clipPath><clipPath id="c9e891cbb1"><path d="M 7 15.648438 L 29 15.648438 L 29 50 L 7 50 Z M 7 15.648438 " clip-rule="nonzero"/></clipPath><clipPath id="7dee91fec2"><path d="M 30 15.648438 L 49 15.648438 L 49 45 L 30 45 Z M 30 15.648438 " clip-rule="nonzero"/></clipPath><clipPath id="bc53d1d581"><path d="M 2 16 L 54.238281 16 L 54.238281 55 L 2 55 Z M 2 16 " clip-rule="nonzero"/></clipPath></defs><g fill="#ffffff" fill-opacity="1"><g transform="translate(64.3648, 45.930587)"><g><path d="M 2.417969 0 L 11.894531 0 C 15.984375 0 18.75 -2.246094 18.75 -5.644531 C 18.75 -7.804688 17.625 -9.53125 15.722656 -10.367188 C 17.25 -11.261719 18.144531 -12.84375 18.144531 -14.746094 C 18.144531 -18.058594 15.523438 -20.160156 11.433594 -20.160156 L 2.417969 -20.160156 Z M 6.941406 -3.628906 L 6.941406 -8.46875 L 11.203125 -8.46875 C 13.015625 -8.46875 14.054688 -7.574219 14.054688 -6.046875 C 14.054688 -4.523438 13.015625 -3.628906 11.203125 -3.628906 Z M 6.941406 -11.953125 L 6.941406 -16.53125 L 10.742188 -16.53125 C 12.5 -16.53125 13.476562 -15.722656 13.476562 -14.253906 C 13.476562 -12.785156 12.5 -11.953125 10.742188 -11.953125 Z M 6.941406 -11.953125 "/></g></g></g><g fill="#ffffff" fill-opacity="1"><g transform="translate(84.200581, 45.930587)"><g><path d="M 2.417969 0 L 15.8125 0 L 15.8125 -4.292969 L 7 -4.292969 L 7 -20.160156 L 2.417969 -20.160156 Z M 2.417969 0 "/></g></g></g><g fill="#ffffff" fill-opacity="1"><g transform="translate(100.783181, 45.930587)"><g><path d="M 11.980469 0.402344 C 18.289062 0.402344 22.75 -3.917969 22.75 -10.078125 C 22.75 -16.242188 18.289062 -20.5625 11.980469 -20.5625 C 5.671875 -20.5625 1.238281 -16.242188 1.238281 -10.078125 C 1.238281 -3.917969 5.671875 0.402344 11.980469 0.402344 Z M 5.902344 -10.078125 C 5.902344 -13.707031 8.410156 -16.214844 11.980469 -16.214844 C 15.582031 -16.214844 18.058594 -13.707031 18.058594 -10.078125 C 18.058594 -6.449219 15.582031 -3.945312 11.980469 -3.945312 C 8.410156 -3.945312 5.902344 -6.449219 5.902344 -10.078125 Z M 5.902344 -10.078125 "/></g></g></g><g fill="#ffffff" fill-opacity="1"><g transform="translate(124.764614, 45.930587)"><g><path d="M 11.980469 0.402344 C 18.289062 0.402344 22.75 -3.917969 22.75 -10.078125 C 22.75 -16.242188 18.289062 -20.5625 11.980469 -20.5625 C 5.671875 -20.5625 1.238281 -16.242188 1.238281 -10.078125 C 1.238281 -3.917969 5.671875 0.402344 11.980469 0.402344 Z M 5.902344 -10.078125 C 5.902344 -13.707031 8.410156 -16.214844 11.980469 -16.214844 C 15.582031 -16.214844 18.058594 -13.707031 18.058594 -10.078125 C 18.058594 -6.449219 15.582031 -3.945312 11.980469 -3.945312 C 8.410156 -3.945312 5.902344 -6.449219 5.902344 -10.078125 Z M 5.902344 -10.078125 "/></g></g></g><g fill="#ffffff" fill-opacity="1"><g transform="translate(148.746048, 45.930587)"><g><path d="M 2.417969 0 L 10.398438 0 C 16.761719 0 21.023438 -4.0625 21.023438 -10.078125 C 21.023438 -16.070312 16.761719 -20.160156 10.398438 -20.160156 L 2.417969 -20.160156 Z M 7 -4.203125 L 7 -15.953125 L 10.253906 -15.953125 C 13.882812 -15.953125 16.328125 -13.621094 16.328125 -10.078125 C 16.328125 -6.539062 13.882812 -4.203125 10.308594 -4.203125 Z M 7 -4.203125 "/></g></g></g><g fill="#ffffff" fill-opacity="1"><g transform="translate(170.971966, 45.930587)"><g/></g></g><g fill="#ff3131" fill-opacity="1"><g transform="translate(177.202028, 47.032192)"><g><path d="M 3.453125 0 L 9.988281 0 L 9.988281 -28.769531 L 3.453125 -28.769531 Z M 3.453125 0 "/></g></g></g><g fill="#ff3131" fill-opacity="1"><g transform="translate(190.639566, 47.032192)"><g><path d="M 17.097656 0.574219 L 18 0.535156 L 18.660156 2.136719 C 20.179688 5.714844 22.976562 7.480469 27.167969 7.480469 L 30.824219 7.480469 L 30.824219 2.425781 L 28.566406 2.425781 C 25.894531 2.425781 25.113281 1.972656 24.25 0 L 23.921875 -0.78125 C 29.140625 -3.042969 32.46875 -8.054688 32.46875 -14.386719 C 32.46875 -23.179688 26.097656 -29.34375 17.097656 -29.34375 C 8.097656 -29.34375 1.765625 -23.179688 1.765625 -14.386719 C 1.765625 -5.589844 8.097656 0.574219 17.097656 0.574219 Z M 8.425781 -14.386719 C 8.425781 -19.5625 12 -23.140625 17.097656 -23.140625 C 22.234375 -23.140625 25.769531 -19.5625 25.769531 -14.386719 C 25.769531 -9.207031 22.234375 -5.628906 17.097656 -5.628906 C 12 -5.628906 8.425781 -9.207031 8.425781 -14.386719 Z M 8.425781 -14.386719 "/></g></g></g><g clip-path="url(#57b056ac1a)"><path fill="#ff3131" d="M 31.328125 46.835938 L 31.328125 53.332031 C 31.328125 56.660156 28.640625 59.351562 25.308594 59.351562 C 22.878906 59.351562 20.789062 57.902344 19.847656 55.832031 C 21.003906 55.328125 21.90625 54.746094 21.90625 54.746094 C 21.699219 54.777344 21.480469 54.800781 21.242188 54.832031 C 21.109375 54.832031 20.953125 54.832031 20.796875 54.832031 C 20.714844 54.832031 20.644531 54.832031 20.589844 54.832031 C 20.507812 54.832031 20.4375 54.832031 20.355469 54.832031 C 20.269531 54.800781 20.199219 54.800781 20.148438 54.800781 C 20.0625 54.800781 19.992188 54.800781 19.910156 54.769531 C 19.824219 54.769531 19.773438 54.769531 19.703125 54.738281 C 19.621094 54.738281 19.566406 54.738281 19.496094 54.707031 C 16.484375 54.261719 13.949219 52.253906 12.792969 49.554688 C 12.824219 49.554688 12.875 49.554688 12.894531 49.585938 C 12.945312 49.585938 13 49.585938 13.03125 49.617188 C 13.082031 49.617188 13.113281 49.648438 13.164062 49.648438 C 13.195312 49.648438 13.246094 49.679688 13.296875 49.679688 C 13.328125 49.679688 13.382812 49.710938 13.402344 49.710938 C 13.453125 49.710938 13.484375 49.710938 13.535156 49.742188 C 13.589844 49.742188 13.621094 49.742188 13.671875 49.773438 C 13.703125 49.773438 13.753906 49.773438 13.804688 49.773438 C 13.835938 49.804688 13.886719 49.804688 13.910156 49.804688 C 13.960938 49.832031 14.011719 49.832031 14.042969 49.832031 C 14.09375 49.832031 14.125 49.863281 14.179688 49.863281 C 14.230469 49.863281 14.261719 49.863281 14.3125 49.863281 C 14.34375 49.894531 14.394531 49.894531 14.445312 49.894531 C 14.476562 49.894531 14.53125 49.925781 14.550781 49.925781 L 14.582031 49.925781 C 14.613281 49.925781 14.664062 49.925781 14.683594 49.925781 C 14.738281 49.957031 14.789062 49.957031 14.820312 49.957031 L 14.953125 49.957031 C 15.003906 49.988281 15.035156 49.988281 15.089844 49.988281 C 15.140625 49.988281 15.171875 49.988281 15.222656 49.988281 C 15.253906 50.019531 15.304688 50.019531 15.355469 50.019531 C 15.386719 50.019531 15.441406 50.019531 15.492188 50.019531 C 15.523438 50.019531 15.574219 50.019531 15.59375 50.050781 C 15.648438 50.050781 15.699219 50.050781 15.730469 50.050781 C 15.78125 50.050781 15.832031 50.050781 15.863281 50.050781 C 15.914062 50.050781 15.945312 50.050781 16 50.050781 C 16.050781 50.050781 16.082031 50.082031 16.132812 50.082031 C 16.183594 50.082031 16.214844 50.082031 16.265625 50.082031 L 16.640625 50.082031 C 16.691406 50.082031 16.742188 50.082031 16.773438 50.082031 L 17.042969 50.082031 C 17.09375 50.082031 17.125 50.082031 17.179688 50.082031 L 17.3125 50.082031 C 17.34375 50.082031 17.394531 50.082031 17.445312 50.082031 L 17.550781 50.082031 C 17.652344 50.082031 17.738281 50.082031 17.820312 50.082031 L 18.191406 50.082031 C 18.296875 50.050781 18.378906 50.050781 18.460938 50.050781 L 18.699219 50.050781 L 18.832031 50.019531 L 19.070312 50.019531 L 19.207031 49.988281 L 19.339844 49.988281 L 19.441406 49.957031 L 19.679688 49.957031 L 19.816406 49.925781 L 19.917969 49.925781 L 20.054688 49.894531 L 20.15625 49.894531 L 20.292969 49.863281 L 20.394531 49.863281 L 20.53125 49.832031 L 20.632812 49.832031 L 20.738281 49.804688 L 20.871094 49.773438 C 24.273438 49.285156 27.894531 48.230469 31.328125 46.835938 Z M 31.328125 46.835938 " fill-opacity="1" fill-rule="nonzero"/></g><g clip-path="url(#71e0727b5e)"><path fill="#ff3131" d="M 33.117188 46.039062 L 33.117188 53.332031 C 33.117188 56.660156 35.808594 59.351562 39.117188 59.351562 C 41.550781 59.351562 43.640625 57.902344 44.613281 55.832031 C 43.453125 55.328125 42.523438 54.746094 42.523438 54.746094 C 42.730469 54.777344 42.96875 54.800781 43.183594 54.832031 C 43.339844 54.832031 43.503906 54.832031 43.628906 54.832031 C 43.710938 54.832031 43.785156 54.832031 43.867188 54.832031 C 43.949219 54.832031 44.023438 54.832031 44.074219 54.832031 L 44.105469 54.832031 C 44.15625 54.800781 44.238281 54.800781 44.3125 54.800781 C 44.394531 54.800781 44.46875 54.800781 44.519531 54.769531 L 44.550781 54.769531 C 44.601562 54.769531 44.683594 54.769531 44.757812 54.738281 C 44.839844 54.738281 44.890625 54.738281 44.964844 54.707031 C 49.164062 54.074219 52.378906 50.421875 52.378906 46.046875 C 52.378906 45.179688 52.246094 44.308594 52.007812 43.511719 C 51.085938 43.597656 50.054688 43.429688 50.054688 43.429688 C 52.640625 41.898438 54.386719 39.097656 54.386719 35.878906 C 54.386719 33.53125 53.46875 31.390625 51.957031 29.828125 C 51.925781 29.910156 51.875 30.011719 51.820312 30.097656 C 51.769531 30.179688 51.71875 30.28125 51.667969 30.367188 C 51.617188 30.46875 51.585938 30.550781 51.53125 30.632812 C 51.480469 30.738281 51.429688 30.820312 51.378906 30.902344 C 51.324219 31.007812 51.273438 31.089844 51.222656 31.171875 C 51.171875 31.253906 51.117188 31.359375 51.066406 31.441406 C 51.015625 31.523438 50.964844 31.628906 50.910156 31.710938 C 50.859375 31.792969 50.808594 31.863281 50.726562 31.980469 C 50.675781 32.0625 50.621094 32.132812 50.570312 32.21875 C 50.519531 32.300781 50.46875 32.402344 50.382812 32.484375 C 50.332031 32.570312 50.28125 32.640625 50.230469 32.722656 C 50.175781 32.828125 50.09375 32.910156 50.042969 32.992188 C 49.992188 33.074219 49.910156 33.148438 49.855469 33.230469 C 49.804688 33.3125 49.722656 33.386719 49.671875 33.5 C 49.617188 33.582031 49.535156 33.65625 49.484375 33.738281 C 49.433594 33.820312 49.351562 33.894531 49.296875 33.976562 C 49.214844 34.058594 49.164062 34.128906 49.089844 34.214844 C 49.039062 34.296875 48.957031 34.367188 48.90625 34.453125 C 48.824219 34.535156 48.769531 34.605469 48.699219 34.6875 C 48.644531 34.773438 48.5625 34.84375 48.511719 34.925781 C 48.429688 35.011719 48.378906 35.082031 48.304688 35.164062 C 48.253906 35.246094 48.171875 35.320312 48.097656 35.402344 C 48.046875 35.484375 47.964844 35.558594 47.890625 35.640625 C 47.839844 35.722656 47.757812 35.796875 47.683594 35.878906 C 47.632812 35.929688 47.550781 36.011719 47.476562 36.085938 C 47.425781 36.167969 47.34375 36.242188 47.269531 36.324219 C 47.1875 36.40625 47.136719 36.457031 47.0625 36.53125 C 46.980469 36.613281 46.910156 36.6875 46.855469 36.769531 C 46.773438 36.820312 46.703125 36.902344 46.617188 36.976562 C 46.535156 37.058594 46.484375 37.128906 46.410156 37.183594 C 46.328125 37.265625 46.257812 37.335938 46.175781 37.421875 C 46.089844 37.472656 46.039062 37.554688 45.96875 37.628906 C 45.882812 37.679688 45.8125 37.761719 45.730469 37.835938 C 45.644531 37.886719 45.574219 37.96875 45.492188 38.039062 C 45.410156 38.09375 45.335938 38.175781 45.253906 38.246094 C 45.171875 38.300781 45.117188 38.382812 45.046875 38.453125 C 44.964844 38.507812 44.890625 38.589844 44.808594 38.640625 C 44.726562 38.722656 44.652344 38.777344 44.570312 38.847656 C 44.488281 38.929688 44.414062 38.980469 44.332031 39.054688 C 44.25 39.105469 44.175781 39.1875 44.09375 39.242188 C 44.011719 39.324219 43.910156 39.375 43.824219 39.449219 C 43.742188 39.5 43.671875 39.582031 43.585938 39.632812 C 43.503906 39.71875 43.433594 39.769531 43.351562 39.839844 C 43.265625 39.894531 43.195312 39.945312 43.113281 40.027344 C 43.027344 40.078125 42.957031 40.160156 42.84375 40.214844 C 42.761719 40.265625 42.6875 40.347656 42.605469 40.398438 C 42.523438 40.480469 42.449219 40.535156 42.367188 40.585938 C 42.285156 40.667969 42.210938 40.71875 42.097656 40.773438 C 42.015625 40.855469 41.941406 40.90625 41.859375 40.957031 C 41.777344 41.011719 41.707031 41.09375 41.589844 41.144531 C 41.507812 41.195312 41.4375 41.246094 41.351562 41.332031 C 41.269531 41.382812 41.199219 41.433594 41.085938 41.484375 C 41 41.570312 40.929688 41.621094 40.847656 41.671875 C 40.765625 41.722656 40.691406 41.777344 40.578125 41.859375 C 40.496094 41.910156 40.421875 41.960938 40.339844 42.011719 C 40.257812 42.066406 40.152344 42.117188 40.070312 42.167969 C 39.988281 42.21875 39.914062 42.304688 39.832031 42.355469 C 39.730469 42.40625 39.648438 42.457031 39.5625 42.511719 C 39.480469 42.5625 39.410156 42.613281 39.292969 42.664062 C 39.210938 42.71875 39.140625 42.769531 39.058594 42.820312 C 38.972656 42.871094 38.871094 42.921875 38.789062 42.976562 C 38.707031 43.027344 38.632812 43.078125 38.550781 43.128906 C 38.445312 43.183594 38.363281 43.234375 38.28125 43.285156 C 38.199219 43.335938 38.125 43.390625 38.011719 43.441406 C 36.480469 44.382812 34.835938 45.25 33.117188 46.039062 Z M 33.117188 46.039062 " fill-opacity="1" fill-rule="nonzero"/></g><g clip-path="url(#376c3a0e61)"><path fill="#ffffff" d="M 25.679688 23.25 C 27.027344 23.539062 28.351562 22.667969 28.640625 21.324219 C 28.929688 19.980469 28.082031 18.632812 26.738281 18.34375 C 25.359375 18.054688 24.046875 18.925781 23.757812 20.269531 C 23.46875 21.613281 24.324219 22.957031 25.679688 23.25 Z M 26.601562 35.816406 C 27.6875 36.023438 28.710938 35.371094 28.949219 34.285156 C 29.1875 33.230469 28.503906 32.175781 27.441406 31.957031 C 26.355469 31.71875 25.328125 32.402344 25.089844 33.46875 C 24.855469 34.523438 25.546875 35.578125 26.601562 35.816406 Z M 17.777344 33.757812 C 17.0625 33.625 16.382812 33.757812 15.800781 34.128906 C 15.242188 34.503906 14.828125 35.082031 14.664062 35.765625 C 14.53125 36.480469 14.664062 37.191406 15.035156 37.742188 C 15.410156 38.289062 15.988281 38.714844 16.671875 38.878906 C 17.382812 39.035156 18.097656 38.878906 18.648438 38.507812 C 19.207031 38.132812 19.621094 37.585938 19.785156 36.871094 C 19.941406 36.160156 19.785156 35.476562 19.414062 34.894531 C 19.070312 34.347656 18.492188 33.921875 17.777344 33.757812 Z M 13.710938 38.601562 C 14.292969 39.5 15.222656 40.183594 16.351562 40.421875 C 17.488281 40.660156 18.59375 40.421875 19.496094 39.839844 C 19.679688 39.738281 19.867188 39.601562 20.023438 39.449219 L 22.351562 41.320312 C 22.246094 41.527344 22.164062 41.746094 22.113281 41.953125 C 21.792969 43.460938 22.742188 44.929688 24.253906 45.25 C 25.765625 45.570312 27.210938 44.621094 27.554688 43.109375 C 27.875 41.628906 26.921875 40.152344 25.414062 39.832031 C 24.59375 39.644531 23.777344 39.863281 23.136719 40.335938 L 20.839844 38.464844 C 21.046875 38.070312 21.234375 37.667969 21.316406 37.191406 C 21.585938 36.085938 21.347656 34.949219 20.757812 34.046875 C 20.46875 33.601562 20.074219 33.199219 19.648438 32.890625 L 21.027344 30.085938 L 21.078125 30.117188 C 22.558594 30.4375 24.035156 29.484375 24.355469 27.976562 C 24.679688 26.464844 23.726562 25.015625 22.246094 24.675781 C 20.738281 24.355469 19.265625 25.308594 18.945312 26.816406 C 18.707031 27.871094 19.101562 28.90625 19.898438 29.539062 L 18.503906 32.339844 C 18.367188 32.289062 18.234375 32.257812 18.128906 32.238281 C 16.992188 32 15.855469 32.238281 14.964844 32.816406 C 14.074219 33.394531 13.382812 34.328125 13.144531 35.453125 C 12.90625 36.582031 13.132812 37.699219 13.710938 38.601562 Z M 26.414062 15.644531 C 29.136719 15.644531 31.328125 17.859375 31.328125 20.578125 L 31.328125 45.664062 C 27.875 47.113281 24.203125 48.230469 20.601562 48.707031 L 20.5 48.738281 L 20.363281 48.738281 L 20.261719 48.769531 L 20.125 48.769531 L 20.023438 48.800781 L 19.886719 48.800781 L 19.785156 48.832031 L 19.648438 48.832031 L 19.546875 48.863281 L 19.414062 48.863281 L 19.277344 48.894531 L 19.144531 48.894531 L 19.039062 48.921875 L 18.78125 48.921875 L 18.648438 48.953125 L 18.378906 48.953125 L 18.273438 48.984375 L 17.871094 48.984375 C 17.820312 48.984375 17.765625 48.984375 17.738281 48.984375 L 17.601562 48.984375 C 17.550781 49.015625 17.5 49.015625 17.46875 49.015625 C 17.414062 49.015625 17.363281 49.015625 17.332031 49.015625 L 17.230469 49.015625 C 17.179688 49.015625 17.125 49.015625 17.09375 49.015625 C 17.042969 49.015625 16.992188 49.015625 16.960938 49.015625 C 16.910156 49.015625 16.855469 49.015625 16.824219 49.015625 L 16.796875 49.015625 C 16.765625 49.015625 16.710938 49.015625 16.660156 49.015625 C 16.628906 49.015625 16.578125 49.015625 16.527344 49.015625 L 16.390625 48.984375 C 16.359375 48.984375 16.308594 48.984375 16.257812 48.984375 C 16.207031 48.984375 16.175781 48.984375 16.121094 48.984375 C 16.070312 48.984375 16.039062 48.984375 15.988281 48.984375 L 15.855469 48.984375 C 15.800781 48.953125 15.75 48.953125 15.71875 48.953125 C 15.667969 48.953125 15.617188 48.953125 15.585938 48.953125 C 15.53125 48.953125 15.480469 48.953125 15.449219 48.953125 C 15.398438 48.921875 15.347656 48.921875 15.296875 48.921875 C 15.265625 48.921875 15.210938 48.921875 15.160156 48.921875 C 15.128906 48.921875 15.078125 48.894531 15.027344 48.894531 C 14.996094 48.894531 14.945312 48.894531 14.890625 48.894531 C 14.839844 48.863281 14.808594 48.863281 14.757812 48.863281 C 14.707031 48.863281 14.675781 48.863281 14.621094 48.863281 C 14.570312 48.832031 14.539062 48.832031 14.488281 48.832031 C 14.4375 48.832031 14.40625 48.800781 14.355469 48.800781 C 14.300781 48.800781 14.269531 48.800781 14.21875 48.769531 C 14.167969 48.769531 14.136719 48.769531 14.085938 48.769531 C 14.03125 48.738281 14.003906 48.738281 13.949219 48.738281 C 13.898438 48.738281 13.867188 48.707031 13.816406 48.707031 C 13.765625 48.707031 13.734375 48.675781 13.679688 48.675781 C 13.628906 48.675781 13.597656 48.644531 13.546875 48.644531 C 13.496094 48.644531 13.464844 48.613281 13.414062 48.613281 C 13.359375 48.613281 13.328125 48.582031 13.277344 48.582031 C 13.226562 48.582031 13.195312 48.550781 13.144531 48.550781 C 13.089844 48.550781 13.0625 48.519531 13.007812 48.519531 C 12.976562 48.488281 12.925781 48.488281 12.875 48.488281 C 12.84375 48.457031 12.792969 48.457031 12.769531 48.4375 C 12.71875 48.4375 12.667969 48.4375 12.636719 48.40625 C 12.585938 48.40625 12.554688 48.375 12.503906 48.375 C 12.449219 48.34375 12.417969 48.34375 12.367188 48.324219 C 12.335938 48.324219 12.285156 48.292969 12.234375 48.292969 C 12.046875 47.578125 11.945312 46.8125 11.945312 46.015625 C 11.945312 45.148438 12.078125 44.277344 12.316406 43.480469 C 13.238281 43.566406 14.269531 43.398438 14.269531 43.398438 C 11.683594 41.867188 9.96875 39.066406 9.96875 35.847656 C 9.96875 32.921875 11.394531 30.304688 13.609375 28.71875 C 14.5625 30.097656 16.910156 29.777344 16.910156 29.777344 C 15.699219 28.875 14.933594 27.449219 14.933594 25.8125 C 14.933594 23.125 17.125 20.898438 19.847656 20.898438 C 19.878906 20.898438 19.898438 20.898438 19.949219 20.898438 C 20.375 22.140625 21.957031 22.773438 21.957031 22.773438 C 21.617188 22.109375 21.398438 21.34375 21.398438 20.527344 C 21.480469 17.859375 23.695312 15.644531 26.414062 15.644531 Z M 26.414062 15.644531 " fill-opacity="1" fill-rule="nonzero"/></g><g clip-path="url(#9e3d11f735)"><path fill="#2e9ddd" d="M 38.777344 23.25 C 37.433594 23.539062 36.089844 22.667969 35.796875 21.324219 C 35.507812 19.980469 36.378906 18.632812 37.722656 18.34375 C 39.066406 18.054688 40.410156 18.925781 40.703125 20.269531 C 40.992188 21.613281 40.121094 22.957031 38.777344 23.25 Z M 37.824219 35.816406 C 36.769531 36.023438 35.714844 35.371094 35.476562 34.285156 C 35.269531 33.230469 35.953125 32.175781 37.007812 31.957031 C 38.0625 31.71875 39.117188 32.402344 39.335938 33.46875 C 39.5625 34.523438 38.882812 35.578125 37.824219 35.816406 Z M 44.746094 37.222656 C 44.714844 37.121094 44.695312 36.984375 44.664062 36.882812 C 44.507812 36.167969 44.664062 35.484375 45.003906 34.90625 C 45.378906 34.347656 45.957031 33.933594 46.671875 33.769531 C 47.117188 33.664062 47.589844 33.71875 48.015625 33.851562 L 47.984375 33.882812 C 47.933594 33.964844 47.851562 34.039062 47.796875 34.121094 C 47.714844 34.203125 47.664062 34.253906 47.589844 34.328125 C 47.539062 34.410156 47.457031 34.480469 47.382812 34.566406 C 47.332031 34.648438 47.25 34.71875 47.199219 34.804688 C 47.117188 34.886719 47.0625 34.957031 46.992188 35.011719 C 46.910156 35.09375 46.855469 35.164062 46.785156 35.246094 C 46.703125 35.332031 46.648438 35.402344 46.578125 35.453125 C 46.496094 35.539062 46.441406 35.609375 46.371094 35.691406 C 46.289062 35.777344 46.214844 35.828125 46.164062 35.898438 C 46.082031 35.980469 46.007812 36.054688 45.925781 36.105469 C 45.875 36.1875 45.792969 36.261719 45.71875 36.34375 C 45.636719 36.394531 45.585938 36.480469 45.511719 36.550781 C 45.429688 36.601562 45.355469 36.6875 45.273438 36.757812 C 45.191406 36.808594 45.140625 36.894531 45.066406 36.964844 C 44.984375 37.015625 44.910156 37.101562 44.828125 37.171875 Z M 38.03125 15.644531 C 35.3125 15.644531 33.117188 17.859375 33.117188 20.578125 L 33.117188 44.847656 C 34.410156 44.238281 35.652344 43.605469 36.875 42.921875 C 36.667969 41.496094 37.609375 40.121094 39.035156 39.832031 C 39.769531 39.675781 40.484375 39.800781 41.09375 40.203125 L 41.230469 40.097656 C 41.3125 40.015625 41.382812 39.964844 41.46875 39.914062 C 41.550781 39.863281 41.621094 39.777344 41.707031 39.726562 C 41.808594 39.675781 41.890625 39.59375 41.972656 39.539062 C 42.058594 39.488281 42.128906 39.40625 42.210938 39.355469 C 42.292969 39.304688 42.367188 39.21875 42.449219 39.167969 C 42.53125 39.085938 42.605469 39.035156 42.6875 38.980469 C 42.769531 38.898438 42.84375 38.847656 42.925781 38.777344 C 43.007812 38.722656 43.082031 38.640625 43.164062 38.589844 C 43.246094 38.539062 43.320312 38.453125 43.402344 38.402344 L 43.503906 38.300781 C 43.351562 37.957031 43.183594 37.585938 43.113281 37.191406 C 42.875 36.085938 43.113281 34.949219 43.691406 34.046875 C 43.980469 33.601562 44.351562 33.199219 44.796875 32.890625 L 43.421875 30.085938 L 43.371094 30.117188 C 41.859375 30.4375 40.410156 29.484375 40.070312 27.976562 C 39.75 26.464844 40.703125 25.015625 42.210938 24.675781 C 43.722656 24.355469 45.171875 25.308594 45.511719 26.816406 C 45.71875 27.871094 45.324219 28.90625 44.558594 29.539062 L 45.9375 32.339844 C 46.070312 32.289062 46.203125 32.257812 46.328125 32.238281 C 47.28125 32.03125 48.234375 32.15625 49.019531 32.558594 L 49.121094 32.421875 C 49.175781 32.339844 49.226562 32.269531 49.277344 32.1875 C 49.359375 32.101562 49.410156 32.03125 49.464844 31.917969 C 49.515625 31.835938 49.566406 31.761719 49.648438 31.679688 C 49.703125 31.597656 49.753906 31.523438 49.804688 31.441406 C 49.855469 31.335938 49.910156 31.253906 49.960938 31.171875 C 50.011719 31.089844 50.0625 31.015625 50.117188 30.902344 C 50.167969 30.820312 50.21875 30.746094 50.269531 30.664062 C 50.320312 30.5625 50.375 30.480469 50.425781 30.394531 C 50.476562 30.3125 50.527344 30.210938 50.582031 30.128906 C 50.632812 30.042969 50.683594 29.972656 50.714844 29.859375 C 50.765625 29.777344 50.820312 29.703125 50.871094 29.589844 C 50.921875 29.507812 50.953125 29.433594 51.003906 29.320312 C 51.058594 29.238281 51.109375 29.164062 51.140625 29.050781 C 51.003906 28.949219 50.871094 28.84375 50.714844 28.730469 C 49.761719 30.105469 47.4375 29.785156 47.4375 29.785156 C 48.625 28.886719 49.410156 27.457031 49.410156 25.824219 C 49.410156 23.132812 47.199219 20.910156 44.5 20.910156 C 44.445312 20.910156 44.414062 20.910156 44.394531 20.910156 C 43.96875 22.152344 42.355469 22.78125 42.355469 22.78125 C 42.730469 22.121094 42.914062 21.355469 42.914062 20.539062 C 42.945312 17.859375 40.753906 15.644531 38.03125 15.644531 Z M 38.03125 15.644531 " fill-opacity="1" fill-rule="nonzero"/></g><g clip-path="url(#8ab1fcbb9a)"><path fill="#ff3131" d="M 51.667969 16.886719 C 54.644531 19.691406 54.492188 23.671875 53.042969 27.5 C 50.457031 34.335938 44.199219 39.832031 38.042969 43.480469 C 32.921875 46.523438 26.714844 48.976562 20.765625 49.773438 C 16.597656 50.351562 10.886719 50.277344 7.910156 46.8125 C 6.71875 45.4375 6.171875 43.75 6.089844 41.953125 C 6.058594 41.371094 6.089844 40.761719 6.140625 40.183594 C 5.902344 40.761719 5.695312 41.339844 5.53125 41.953125 C 4.289062 46.203125 5.292969 49.742188 9.121094 52.171875 C 9.59375 52.492188 10.089844 52.75 10.628906 52.988281 C 12.585938 53.910156 14.695312 54.332031 16.835938 54.417969 C 19.214844 54.5 21.617188 54.148438 23.941406 53.570312 C 29.167969 52.273438 34.296875 49.710938 38.757812 46.75 C 43.960938 43.316406 49.183594 38.746094 52.804688 33.625 C 54.234375 31.617188 55.578125 29.320312 56.261719 26.941406 C 56.789062 25.121094 56.996094 23.113281 56.3125 21.292969 C 55.546875 19.183594 53.777344 17.808594 51.667969 16.886719 Z M 51.667969 16.886719 " fill-opacity="1" fill-rule="nonzero"/></g><g clip-path="url(#0df877291d)"><path fill="#000a39" d="M 56.988281 53.914062 C 56.988281 60.4375 51.699219 65.726562 45.175781 65.726562 L 12.335938 65.726562 C 5.8125 65.726562 0.523438 60.4375 0.523438 53.914062 L 0.523438 21.074219 C 0.523438 14.550781 5.8125 9.261719 12.335938 9.261719 L 45.175781 9.261719 C 51.699219 9.261719 56.988281 14.550781 56.988281 21.074219 L 56.988281 53.914062 " fill-opacity="1" fill-rule="nonzero"/></g><path fill="#000a39" d="M 46.085938 37.496094 C 46.066406 42.636719 43.789062 47.449219 39.886719 50.785156 C 36.027344 54.085938 30.671875 55.457031 25.6875 54.558594 C 20.714844 53.664062 16.359375 50.582031 13.792969 46.242188 C 11.144531 41.765625 10.75 36.261719 12.523438 31.398438 C 14.210938 26.765625 18.058594 22.984375 22.660156 21.261719 C 27.523438 19.441406 33.019531 19.929688 37.503906 22.53125 C 42.800781 25.605469 46.058594 31.394531 46.085938 37.496094 C 46.09375 39 48.425781 39 48.421875 37.496094 C 48.394531 32.085938 46.15625 26.878906 42.222656 23.164062 C 38.28125 19.445312 32.851562 17.523438 27.449219 17.875 C 22.101562 18.226562 17.035156 20.820312 13.621094 24.949219 C 10.101562 29.207031 8.550781 34.765625 9.292969 40.234375 C 10.015625 45.558594 12.984375 50.300781 17.292969 53.464844 C 21.707031 56.707031 27.417969 57.804688 32.753906 56.75 C 37.085938 55.890625 41.085938 53.433594 43.890625 50.039062 C 46.808594 46.515625 48.398438 42.070312 48.421875 37.496094 C 48.425781 35.988281 46.09375 35.992188 46.085938 37.496094 " fill-opacity="1" fill-rule="nonzero"/><g clip-path="url(#5558e73dca)"><path fill="#ff3131" d="M 28.808594 46.835938 L 28.808594 53.332031 C 28.808594 56.660156 26.121094 59.351562 22.789062 59.351562 C 20.359375 59.351562 18.269531 57.902344 17.328125 55.832031 C 18.484375 55.328125 19.386719 54.746094 19.386719 54.746094 C 19.179688 54.777344 18.960938 54.800781 18.722656 54.832031 C 18.589844 54.832031 18.433594 54.832031 18.277344 54.832031 C 18.195312 54.832031 18.121094 54.832031 18.070312 54.832031 C 17.988281 54.832031 17.917969 54.832031 17.832031 54.832031 C 17.75 54.800781 17.679688 54.800781 17.625 54.800781 C 17.542969 54.800781 17.472656 54.800781 17.386719 54.769531 C 17.304688 54.769531 17.253906 54.769531 17.179688 54.738281 C 17.097656 54.738281 17.046875 54.738281 16.976562 54.707031 C 13.964844 54.261719 11.429688 52.253906 10.269531 49.554688 C 10.300781 49.554688 10.355469 49.554688 10.375 49.585938 C 10.425781 49.585938 10.476562 49.585938 10.507812 49.617188 C 10.5625 49.617188 10.59375 49.648438 10.644531 49.648438 C 10.675781 49.648438 10.726562 49.679688 10.777344 49.679688 C 10.808594 49.679688 10.859375 49.710938 10.882812 49.710938 C 10.933594 49.710938 10.964844 49.710938 11.015625 49.742188 C 11.066406 49.742188 11.097656 49.742188 11.152344 49.773438 C 11.183594 49.773438 11.234375 49.773438 11.285156 49.773438 C 11.316406 49.804688 11.367188 49.804688 11.386719 49.804688 C 11.441406 49.832031 11.492188 49.832031 11.523438 49.832031 C 11.574219 49.832031 11.605469 49.863281 11.65625 49.863281 C 11.710938 49.863281 11.742188 49.863281 11.792969 49.863281 C 11.824219 49.894531 11.875 49.894531 11.925781 49.894531 C 11.957031 49.894531 12.007812 49.925781 12.03125 49.925781 L 12.0625 49.925781 C 12.09375 49.925781 12.144531 49.925781 12.164062 49.925781 C 12.214844 49.957031 12.269531 49.957031 12.300781 49.957031 L 12.433594 49.957031 C 12.484375 49.988281 12.515625 49.988281 12.566406 49.988281 C 12.621094 49.988281 12.652344 49.988281 12.703125 49.988281 C 12.734375 50.019531 12.785156 50.019531 12.835938 50.019531 C 12.867188 50.019531 12.917969 50.019531 12.972656 50.019531 C 13.003906 50.019531 13.054688 50.019531 13.074219 50.050781 C 13.125 50.050781 13.179688 50.050781 13.210938 50.050781 C 13.261719 50.050781 13.3125 50.050781 13.34375 50.050781 C 13.394531 50.050781 13.425781 50.050781 13.476562 50.050781 C 13.53125 50.050781 13.5625 50.082031 13.613281 50.082031 C 13.664062 50.082031 13.695312 50.082031 13.746094 50.082031 L 14.121094 50.082031 C 14.171875 50.082031 14.222656 50.082031 14.253906 50.082031 L 14.523438 50.082031 C 14.574219 50.082031 14.605469 50.082031 14.65625 50.082031 L 14.792969 50.082031 C 14.824219 50.082031 14.875 50.082031 14.925781 50.082031 L 15.03125 50.082031 C 15.132812 50.082031 15.214844 50.082031 15.300781 50.082031 L 15.671875 50.082031 C 15.773438 50.050781 15.859375 50.050781 15.941406 50.050781 L 16.179688 50.050781 L 16.3125 50.019531 L 16.550781 50.019531 L 16.683594 49.988281 L 16.820312 49.988281 L 16.921875 49.957031 L 17.160156 49.957031 L 17.296875 49.925781 L 17.398438 49.925781 L 17.535156 49.894531 L 17.636719 49.894531 L 17.769531 49.863281 L 17.875 49.863281 L 18.007812 49.832031 L 18.113281 49.832031 L 18.214844 49.804688 L 18.351562 49.773438 C 21.753906 49.285156 25.375 48.230469 28.808594 46.835938 Z M 28.808594 46.835938 " fill-opacity="1" fill-rule="nonzero"/></g><g clip-path="url(#3fe142be31)"><path fill="#ff3131" d="M 30.597656 46.039062 L 30.597656 53.332031 C 30.597656 56.660156 33.289062 59.351562 36.597656 59.351562 C 39.03125 59.351562 41.121094 57.902344 42.089844 55.832031 C 40.933594 55.328125 40.003906 54.746094 40.003906 54.746094 C 40.207031 54.777344 40.445312 54.800781 40.664062 54.832031 C 40.820312 54.832031 40.984375 54.832031 41.109375 54.832031 C 41.191406 54.832031 41.265625 54.832031 41.347656 54.832031 C 41.429688 54.832031 41.503906 54.832031 41.554688 54.832031 L 41.585938 54.832031 C 41.636719 54.800781 41.71875 54.800781 41.792969 54.800781 C 41.875 54.800781 41.945312 54.800781 42 54.769531 L 42.03125 54.769531 C 42.082031 54.769531 42.164062 54.769531 42.238281 54.738281 C 42.320312 54.738281 42.371094 54.738281 42.445312 54.707031 C 46.644531 54.074219 49.859375 50.421875 49.859375 46.046875 C 49.859375 45.179688 49.726562 44.308594 49.488281 43.511719 C 48.566406 43.597656 47.53125 43.429688 47.53125 43.429688 C 50.121094 41.898438 51.867188 39.097656 51.867188 35.878906 C 51.867188 33.53125 50.945312 31.390625 49.4375 29.828125 C 49.40625 29.910156 49.355469 30.011719 49.300781 30.097656 C 49.25 30.179688 49.199219 30.28125 49.148438 30.367188 C 49.09375 30.46875 49.0625 30.550781 49.011719 30.632812 C 48.960938 30.738281 48.910156 30.820312 48.855469 30.902344 C 48.804688 31.007812 48.753906 31.089844 48.703125 31.171875 C 48.648438 31.253906 48.597656 31.359375 48.546875 31.441406 C 48.496094 31.523438 48.441406 31.628906 48.390625 31.710938 C 48.339844 31.792969 48.289062 31.863281 48.207031 31.980469 C 48.152344 32.0625 48.101562 32.132812 48.050781 32.21875 C 48 32.300781 47.945312 32.402344 47.863281 32.484375 C 47.8125 32.570312 47.761719 32.640625 47.707031 32.722656 C 47.65625 32.828125 47.574219 32.910156 47.523438 32.992188 C 47.472656 33.074219 47.386719 33.148438 47.335938 33.230469 C 47.285156 33.3125 47.203125 33.386719 47.148438 33.5 C 47.097656 33.582031 47.015625 33.65625 46.964844 33.738281 C 46.914062 33.820312 46.828125 33.894531 46.777344 33.976562 C 46.695312 34.058594 46.644531 34.128906 46.570312 34.214844 C 46.519531 34.296875 46.4375 34.367188 46.382812 34.453125 C 46.300781 34.535156 46.25 34.605469 46.179688 34.6875 C 46.125 34.773438 46.042969 34.84375 45.992188 34.925781 C 45.910156 35.011719 45.855469 35.082031 45.785156 35.164062 C 45.734375 35.246094 45.648438 35.320312 45.578125 35.402344 C 45.527344 35.484375 45.445312 35.558594 45.371094 35.640625 C 45.320312 35.722656 45.238281 35.796875 45.164062 35.878906 C 45.113281 35.929688 45.03125 36.011719 44.957031 36.085938 C 44.90625 36.167969 44.824219 36.242188 44.75 36.324219 C 44.667969 36.40625 44.617188 36.457031 44.542969 36.53125 C 44.460938 36.613281 44.386719 36.6875 44.335938 36.769531 C 44.253906 36.820312 44.179688 36.902344 44.097656 36.976562 C 44.015625 37.058594 43.964844 37.128906 43.890625 37.183594 C 43.808594 37.265625 43.738281 37.335938 43.652344 37.421875 C 43.570312 37.472656 43.519531 37.554688 43.445312 37.628906 C 43.363281 37.679688 43.292969 37.761719 43.207031 37.835938 C 43.125 37.886719 43.054688 37.96875 42.972656 38.039062 C 42.886719 38.09375 42.816406 38.175781 42.734375 38.246094 C 42.648438 38.300781 42.597656 38.382812 42.527344 38.453125 C 42.445312 38.507812 42.371094 38.589844 42.289062 38.640625 C 42.207031 38.722656 42.132812 38.777344 42.050781 38.847656 C 41.96875 38.929688 41.894531 38.980469 41.8125 39.054688 C 41.730469 39.105469 41.65625 39.1875 41.574219 39.242188 C 41.492188 39.324219 41.386719 39.375 41.304688 39.449219 C 41.222656 39.5 41.148438 39.582031 41.066406 39.632812 C 40.984375 39.71875 40.914062 39.769531 40.828125 39.839844 C 40.746094 39.894531 40.675781 39.945312 40.589844 40.027344 C 40.507812 40.078125 40.4375 40.160156 40.324219 40.214844 C 40.238281 40.265625 40.167969 40.347656 40.085938 40.398438 C 40.003906 40.480469 39.929688 40.535156 39.847656 40.585938 C 39.765625 40.667969 39.691406 40.71875 39.578125 40.773438 C 39.496094 40.855469 39.421875 40.90625 39.339844 40.957031 C 39.257812 41.011719 39.183594 41.09375 39.070312 41.144531 C 38.988281 41.195312 38.914062 41.246094 38.832031 41.332031 C 38.75 41.382812 38.679688 41.433594 38.5625 41.484375 C 38.480469 41.570312 38.410156 41.621094 38.328125 41.671875 C 38.242188 41.722656 38.171875 41.777344 38.058594 41.859375 C 37.972656 41.910156 37.902344 41.960938 37.820312 42.011719 C 37.738281 42.066406 37.632812 42.117188 37.550781 42.167969 C 37.46875 42.21875 37.394531 42.304688 37.3125 42.355469 C 37.210938 42.40625 37.125 42.457031 37.042969 42.511719 C 36.960938 42.5625 36.886719 42.613281 36.773438 42.664062 C 36.691406 42.71875 36.621094 42.769531 36.535156 42.820312 C 36.453125 42.871094 36.351562 42.921875 36.269531 42.976562 C 36.183594 43.027344 36.113281 43.078125 36.03125 43.128906 C 35.925781 43.183594 35.84375 43.234375 35.761719 43.285156 C 35.679688 43.335938 35.605469 43.390625 35.492188 43.441406 C 33.960938 44.382812 32.316406 45.25 30.597656 46.039062 Z M 30.597656 46.039062 " fill-opacity="1" fill-rule="nonzero"/></g><g clip-path="url(#c9e891cbb1)"><path fill="#ffffff" d="M 23.160156 23.25 C 24.503906 23.539062 25.828125 22.667969 26.121094 21.324219 C 26.410156 19.980469 25.5625 18.632812 24.214844 18.34375 C 22.839844 18.054688 21.527344 18.925781 21.238281 20.269531 C 20.945312 21.613281 21.804688 22.957031 23.160156 23.25 Z M 24.082031 35.816406 C 25.167969 36.023438 26.191406 35.371094 26.429688 34.285156 C 26.667969 33.230469 25.984375 32.175781 24.917969 31.957031 C 23.832031 31.71875 22.808594 32.402344 22.570312 33.46875 C 22.332031 34.523438 23.027344 35.578125 24.082031 35.816406 Z M 15.257812 33.757812 C 14.542969 33.625 13.859375 33.757812 13.28125 34.128906 C 12.722656 34.503906 12.308594 35.082031 12.144531 35.765625 C 12.007812 36.480469 12.144531 37.191406 12.515625 37.742188 C 12.886719 38.289062 13.46875 38.714844 14.152344 38.878906 C 14.863281 39.035156 15.578125 38.878906 16.125 38.507812 C 16.683594 38.132812 17.097656 37.585938 17.265625 36.871094 C 17.417969 36.160156 17.265625 35.476562 16.890625 34.894531 C 16.550781 34.347656 15.972656 33.921875 15.257812 33.757812 Z M 11.191406 38.601562 C 11.769531 39.5 12.703125 40.183594 13.828125 40.421875 C 14.96875 40.660156 16.074219 40.421875 16.976562 39.839844 C 17.160156 39.738281 17.347656 39.601562 17.503906 39.449219 L 19.828125 41.320312 C 19.726562 41.527344 19.644531 41.746094 19.59375 41.953125 C 19.269531 43.460938 20.222656 44.929688 21.734375 45.25 C 23.242188 45.570312 24.691406 44.621094 25.035156 43.109375 C 25.355469 41.628906 24.402344 40.152344 22.890625 39.832031 C 22.074219 39.644531 21.257812 39.863281 20.617188 40.335938 L 18.320312 38.464844 C 18.527344 38.070312 18.710938 37.667969 18.796875 37.191406 C 19.0625 36.085938 18.828125 34.949219 18.238281 34.046875 C 17.945312 33.601562 17.554688 33.199219 17.128906 32.890625 L 18.503906 30.085938 L 18.558594 30.117188 C 20.035156 30.4375 21.515625 29.484375 21.835938 27.976562 C 22.15625 26.464844 21.207031 25.015625 19.726562 24.675781 C 18.214844 24.355469 16.746094 25.308594 16.425781 26.816406 C 16.1875 27.871094 16.582031 28.90625 17.378906 29.539062 L 15.980469 32.339844 C 15.847656 32.289062 15.710938 32.257812 15.609375 32.238281 C 14.472656 32 13.332031 32.238281 12.445312 32.816406 C 11.554688 33.394531 10.859375 34.328125 10.625 35.453125 C 10.386719 36.582031 10.613281 37.699219 11.191406 38.601562 Z M 23.894531 15.644531 C 26.617188 15.644531 28.808594 17.859375 28.808594 20.578125 L 28.808594 45.664062 C 25.355469 47.113281 21.679688 48.230469 18.082031 48.707031 L 17.976562 48.738281 L 17.84375 48.738281 L 17.742188 48.769531 L 17.605469 48.769531 L 17.503906 48.800781 L 17.367188 48.800781 L 17.265625 48.832031 L 17.128906 48.832031 L 17.027344 48.863281 L 16.890625 48.863281 L 16.757812 48.894531 L 16.621094 48.894531 L 16.519531 48.921875 L 16.261719 48.921875 L 16.125 48.953125 L 15.859375 48.953125 L 15.753906 48.984375 L 15.351562 48.984375 C 15.300781 48.984375 15.246094 48.984375 15.214844 48.984375 L 15.082031 48.984375 C 15.03125 49.015625 14.976562 49.015625 14.945312 49.015625 C 14.894531 49.015625 14.84375 49.015625 14.8125 49.015625 L 14.710938 49.015625 C 14.65625 49.015625 14.605469 49.015625 14.574219 49.015625 C 14.523438 49.015625 14.472656 49.015625 14.441406 49.015625 C 14.386719 49.015625 14.335938 49.015625 14.304688 49.015625 L 14.273438 49.015625 C 14.242188 49.015625 14.191406 49.015625 14.140625 49.015625 C 14.109375 49.015625 14.058594 49.015625 14.003906 49.015625 L 13.871094 48.984375 C 13.839844 48.984375 13.789062 48.984375 13.738281 48.984375 C 13.683594 48.984375 13.652344 48.984375 13.601562 48.984375 C 13.550781 48.984375 13.519531 48.984375 13.46875 48.984375 L 13.332031 48.984375 C 13.28125 48.953125 13.230469 48.953125 13.199219 48.953125 C 13.148438 48.953125 13.09375 48.953125 13.0625 48.953125 C 13.011719 48.953125 12.960938 48.953125 12.929688 48.953125 C 12.878906 48.921875 12.828125 48.921875 12.773438 48.921875 C 12.742188 48.921875 12.691406 48.921875 12.640625 48.921875 C 12.609375 48.921875 12.558594 48.894531 12.503906 48.894531 C 12.476562 48.894531 12.421875 48.894531 12.371094 48.894531 C 12.320312 48.863281 12.289062 48.863281 12.238281 48.863281 C 12.183594 48.863281 12.152344 48.863281 12.101562 48.863281 C 12.050781 48.832031 12.019531 48.832031 11.96875 48.832031 C 11.917969 48.832031 11.886719 48.800781 11.832031 48.800781 C 11.78125 48.800781 11.75 48.800781 11.699219 48.769531 C 11.648438 48.769531 11.617188 48.769531 11.566406 48.769531 C 11.511719 48.738281 11.480469 48.738281 11.429688 48.738281 C 11.378906 48.738281 11.347656 48.707031 11.296875 48.707031 C 11.242188 48.707031 11.210938 48.675781 11.160156 48.675781 C 11.109375 48.675781 11.078125 48.644531 11.027344 48.644531 C 10.976562 48.644531 10.945312 48.613281 10.890625 48.613281 C 10.839844 48.613281 10.808594 48.582031 10.757812 48.582031 C 10.707031 48.582031 10.675781 48.550781 10.625 48.550781 C 10.570312 48.550781 10.539062 48.519531 10.488281 48.519531 C 10.457031 48.488281 10.40625 48.488281 10.355469 48.488281 C 10.324219 48.457031 10.269531 48.457031 10.25 48.4375 C 10.199219 48.4375 10.148438 48.4375 10.117188 48.40625 C 10.066406 48.40625 10.035156 48.375 9.980469 48.375 C 9.929688 48.34375 9.898438 48.34375 9.847656 48.324219 C 9.816406 48.324219 9.765625 48.292969 9.710938 48.292969 C 9.527344 47.578125 9.421875 46.8125 9.421875 46.015625 C 9.421875 45.148438 9.558594 44.277344 9.796875 43.480469 C 10.714844 43.566406 11.75 43.398438 11.75 43.398438 C 9.164062 41.867188 7.445312 39.066406 7.445312 35.847656 C 7.445312 32.921875 8.875 30.304688 11.089844 28.71875 C 12.039062 30.097656 14.386719 29.777344 14.386719 29.777344 C 13.179688 28.875 12.414062 27.449219 12.414062 25.8125 C 12.414062 23.125 14.605469 20.898438 17.328125 20.898438 C 17.359375 20.898438 17.378906 20.898438 17.429688 20.898438 C 17.855469 22.140625 19.4375 22.773438 19.4375 22.773438 C 19.09375 22.109375 18.878906 21.34375 18.878906 20.527344 C 18.960938 17.859375 21.175781 15.644531 23.894531 15.644531 Z M 23.894531 15.644531 " fill-opacity="1" fill-rule="nonzero"/></g><g clip-path="url(#7dee91fec2)"><path fill="#2e9ddd" d="M 36.257812 23.25 C 34.914062 23.539062 33.566406 22.667969 33.277344 21.324219 C 32.988281 19.980469 33.855469 18.632812 35.203125 18.34375 C 36.546875 18.054688 37.890625 18.925781 38.179688 20.269531 C 38.472656 21.613281 37.601562 22.957031 36.257812 23.25 Z M 35.304688 35.816406 C 34.25 36.023438 33.195312 35.371094 32.957031 34.285156 C 32.75 33.230469 33.433594 32.175781 34.488281 31.957031 C 35.542969 31.71875 36.597656 32.402344 36.816406 33.46875 C 37.042969 34.523438 36.359375 35.578125 35.304688 35.816406 Z M 42.226562 37.222656 C 42.195312 37.121094 42.175781 36.984375 42.144531 36.882812 C 41.988281 36.167969 42.144531 35.484375 42.484375 34.90625 C 42.855469 34.347656 43.4375 33.933594 44.148438 33.769531 C 44.59375 33.664062 45.070312 33.71875 45.496094 33.851562 L 45.464844 33.882812 C 45.414062 33.964844 45.328125 34.039062 45.277344 34.121094 C 45.195312 34.203125 45.144531 34.253906 45.070312 34.328125 C 45.019531 34.410156 44.9375 34.480469 44.863281 34.566406 C 44.8125 34.648438 44.730469 34.71875 44.679688 34.804688 C 44.59375 34.886719 44.542969 34.957031 44.472656 35.011719 C 44.386719 35.09375 44.335938 35.164062 44.265625 35.246094 C 44.179688 35.332031 44.128906 35.402344 44.058594 35.453125 C 43.972656 35.539062 43.921875 35.609375 43.851562 35.691406 C 43.765625 35.777344 43.695312 35.828125 43.644531 35.898438 C 43.5625 35.980469 43.488281 36.054688 43.40625 36.105469 C 43.355469 36.1875 43.269531 36.261719 43.199219 36.34375 C 43.117188 36.394531 43.0625 36.480469 42.992188 36.550781 C 42.910156 36.601562 42.835938 36.6875 42.753906 36.757812 C 42.671875 36.808594 42.621094 36.894531 42.546875 36.964844 C 42.464844 37.015625 42.390625 37.101562 42.308594 37.171875 Z M 35.511719 15.644531 C 32.792969 15.644531 30.597656 17.859375 30.597656 20.578125 L 30.597656 44.847656 C 31.890625 44.238281 33.132812 43.605469 34.355469 42.921875 C 34.148438 41.496094 35.089844 40.121094 36.515625 39.832031 C 37.25 39.675781 37.964844 39.800781 38.574219 40.203125 L 38.707031 40.097656 C 38.792969 40.015625 38.863281 39.964844 38.945312 39.914062 C 39.03125 39.863281 39.101562 39.777344 39.183594 39.726562 C 39.289062 39.675781 39.371094 39.59375 39.453125 39.539062 C 39.535156 39.488281 39.609375 39.40625 39.691406 39.355469 C 39.773438 39.304688 39.847656 39.21875 39.929688 39.167969 C 40.011719 39.085938 40.085938 39.035156 40.167969 38.980469 C 40.25 38.898438 40.324219 38.847656 40.40625 38.777344 C 40.488281 38.722656 40.5625 38.640625 40.644531 38.589844 C 40.726562 38.539062 40.796875 38.453125 40.882812 38.402344 L 40.984375 38.300781 C 40.828125 37.957031 40.664062 37.585938 40.589844 37.191406 C 40.355469 36.085938 40.589844 34.949219 41.171875 34.046875 C 41.460938 33.601562 41.832031 33.199219 42.277344 32.890625 L 40.902344 30.085938 L 40.851562 30.117188 C 39.339844 30.4375 37.890625 29.484375 37.550781 27.976562 C 37.230469 26.464844 38.179688 25.015625 39.691406 24.675781 C 41.203125 24.355469 42.648438 25.308594 42.992188 26.816406 C 43.199219 27.871094 42.804688 28.90625 42.039062 29.539062 L 43.414062 32.339844 C 43.550781 32.289062 43.683594 32.257812 43.808594 32.238281 C 44.761719 32.03125 45.710938 32.15625 46.5 32.558594 L 46.601562 32.421875 C 46.652344 32.339844 46.707031 32.269531 46.757812 32.1875 C 46.839844 32.101562 46.890625 32.03125 46.941406 31.917969 C 46.996094 31.835938 47.046875 31.761719 47.128906 31.679688 C 47.179688 31.597656 47.234375 31.523438 47.285156 31.441406 C 47.335938 31.335938 47.386719 31.253906 47.441406 31.171875 C 47.492188 31.089844 47.542969 31.015625 47.59375 30.902344 C 47.648438 30.820312 47.699219 30.746094 47.75 30.664062 C 47.800781 30.5625 47.855469 30.480469 47.90625 30.394531 C 47.957031 30.3125 48.007812 30.210938 48.0625 30.128906 C 48.113281 30.042969 48.164062 29.972656 48.195312 29.859375 C 48.246094 29.777344 48.296875 29.703125 48.351562 29.589844 C 48.402344 29.507812 48.433594 29.433594 48.484375 29.320312 C 48.535156 29.238281 48.589844 29.164062 48.621094 29.050781 C 48.484375 28.949219 48.351562 28.84375 48.195312 28.730469 C 47.242188 30.105469 44.914062 29.785156 44.914062 29.785156 C 46.105469 28.886719 46.890625 27.457031 46.890625 25.824219 C 46.890625 23.132812 44.679688 20.910156 41.976562 20.910156 C 41.925781 20.910156 41.894531 20.910156 41.875 20.910156 C 41.449219 22.152344 39.835938 22.78125 39.835938 22.78125 C 40.207031 22.121094 40.394531 21.355469 40.394531 20.539062 C 40.425781 17.859375 38.234375 15.644531 35.511719 15.644531 Z M 35.511719 15.644531 " fill-opacity="1" fill-rule="nonzero"/></g><g clip-path="url(#bc53d1d581)"><path fill="#ff3131" d="M 49.148438 16.886719 C 52.125 19.691406 51.972656 23.671875 50.523438 27.5 C 47.9375 34.335938 41.679688 39.832031 35.523438 43.480469 C 30.402344 46.523438 24.195312 48.976562 18.246094 49.773438 C 14.078125 50.351562 8.367188 50.277344 5.390625 46.8125 C 4.199219 45.4375 3.652344 43.75 3.566406 41.953125 C 3.535156 41.371094 3.566406 40.761719 3.621094 40.183594 C 3.382812 40.761719 3.175781 41.339844 3.007812 41.953125 C 1.769531 46.203125 2.769531 49.742188 6.597656 52.171875 C 7.074219 52.492188 7.570312 52.75 8.109375 52.988281 C 10.066406 53.910156 12.175781 54.332031 14.316406 54.417969 C 16.695312 54.5 19.09375 54.148438 21.421875 53.570312 C 26.648438 52.273438 31.777344 49.710938 36.238281 46.75 C 41.441406 43.316406 46.664062 38.746094 50.285156 33.625 C 51.710938 31.617188 53.058594 29.320312 53.738281 26.941406 C 54.265625 25.121094 54.472656 23.113281 53.792969 21.292969 C 53.027344 19.183594 51.257812 17.808594 49.148438 16.886719 Z M 49.148438 16.886719 " fill-opacity="1" fill-rule="nonzero"/></g><g fill="#ffffff" fill-opacity="1"><g transform="translate(67.909019, 56.105947)"><g><path d="M 2.75 -2.734375 L 1.5625 -1.53125 L 1.5625 0 L 0.953125 0 L 0.953125 -5.8125 L 1.5625 -5.8125 L 1.5625 -2.296875 L 4.984375 -5.8125 L 5.6875 -5.8125 L 3.171875 -3.1875 L 5.859375 0 L 5.125 0 Z M 2.75 -2.734375 "/></g></g></g><g fill="#ffffff" fill-opacity="1"><g transform="translate(74.06235, 56.105947)"><g><path d="M 5.8125 -5.8125 L 5.8125 0 L 5.296875 0 L 1.5625 -4.71875 L 1.5625 0 L 0.953125 0 L 0.953125 -5.8125 L 1.453125 -5.8125 L 5.203125 -1.09375 L 5.203125 -5.8125 Z M 5.8125 -5.8125 "/></g></g></g><g fill="#ffffff" fill-opacity="1"><g transform="translate(81.063847, 56.105947)"><g><path d="M 3.484375 0.046875 C 2.910156 0.046875 2.390625 -0.078125 1.921875 -0.328125 C 1.453125 -0.585938 1.085938 -0.941406 0.828125 -1.390625 C 0.566406 -1.835938 0.4375 -2.34375 0.4375 -2.90625 C 0.4375 -3.46875 0.566406 -3.972656 0.828125 -4.421875 C 1.085938 -4.867188 1.453125 -5.222656 1.921875 -5.484375 C 2.390625 -5.742188 2.910156 -5.875 3.484375 -5.875 C 4.066406 -5.875 4.585938 -5.742188 5.046875 -5.484375 C 5.515625 -5.234375 5.878906 -4.878906 6.140625 -4.421875 C 6.410156 -3.972656 6.546875 -3.46875 6.546875 -2.90625 C 6.546875 -2.34375 6.410156 -1.835938 6.140625 -1.390625 C 5.878906 -0.941406 5.515625 -0.585938 5.046875 -0.328125 C 4.585938 -0.078125 4.066406 0.046875 3.484375 0.046875 Z M 3.484375 -0.5 C 3.953125 -0.5 4.367188 -0.601562 4.734375 -0.8125 C 5.109375 -1.019531 5.398438 -1.304688 5.609375 -1.671875 C 5.816406 -2.046875 5.921875 -2.457031 5.921875 -2.90625 C 5.921875 -3.363281 5.816406 -3.773438 5.609375 -4.140625 C 5.398438 -4.515625 5.109375 -4.800781 4.734375 -5 C 4.367188 -5.207031 3.953125 -5.3125 3.484375 -5.3125 C 3.023438 -5.3125 2.609375 -5.207031 2.234375 -5 C 1.859375 -4.800781 1.5625 -4.515625 1.34375 -4.140625 C 1.132812 -3.773438 1.03125 -3.363281 1.03125 -2.90625 C 1.03125 -2.457031 1.132812 -2.046875 1.34375 -1.671875 C 1.5625 -1.304688 1.859375 -1.019531 2.234375 -0.8125 C 2.609375 -0.601562 3.023438 -0.5 3.484375 -0.5 Z M 3.484375 -0.5 "/></g></g></g><g fill="#ffffff" fill-opacity="1"><g transform="translate(88.281538, 56.105947)"><g><path d="M 8.9375 -5.8125 L 6.96875 0 L 6.328125 0 L 4.625 -4.96875 L 2.90625 0 L 2.265625 0 L 0.3125 -5.8125 L 0.9375 -5.8125 L 2.625 -0.8125 L 4.359375 -5.8125 L 4.921875 -5.8125 L 6.640625 -0.796875 L 8.34375 -5.8125 Z M 8.9375 -5.8125 "/></g></g></g><g fill="#ffffff" fill-opacity="1"><g transform="translate(97.760994, 56.105947)"><g/></g></g><g fill="#ffffff" fill-opacity="1"><g transform="translate(100.180753, 56.105947)"><g><path d="M 2.9375 -2.015625 L 2.9375 0 L 2.328125 0 L 2.328125 -2.015625 L 0.015625 -5.8125 L 0.671875 -5.8125 L 2.65625 -2.546875 L 4.65625 -5.8125 L 5.265625 -5.8125 Z M 2.9375 -2.015625 "/></g></g></g><g fill="#ffffff" fill-opacity="1"><g transform="translate(105.702123, 56.105947)"><g><path d="M 3.484375 0.046875 C 2.910156 0.046875 2.390625 -0.078125 1.921875 -0.328125 C 1.453125 -0.585938 1.085938 -0.941406 0.828125 -1.390625 C 0.566406 -1.835938 0.4375 -2.34375 0.4375 -2.90625 C 0.4375 -3.46875 0.566406 -3.972656 0.828125 -4.421875 C 1.085938 -4.867188 1.453125 -5.222656 1.921875 -5.484375 C 2.390625 -5.742188 2.910156 -5.875 3.484375 -5.875 C 4.066406 -5.875 4.585938 -5.742188 5.046875 -5.484375 C 5.515625 -5.234375 5.878906 -4.878906 6.140625 -4.421875 C 6.410156 -3.972656 6.546875 -3.46875 6.546875 -2.90625 C 6.546875 -2.34375 6.410156 -1.835938 6.140625 -1.390625 C 5.878906 -0.941406 5.515625 -0.585938 5.046875 -0.328125 C 4.585938 -0.078125 4.066406 0.046875 3.484375 0.046875 Z M 3.484375 -0.5 C 3.953125 -0.5 4.367188 -0.601562 4.734375 -0.8125 C 5.109375 -1.019531 5.398438 -1.304688 5.609375 -1.671875 C 5.816406 -2.046875 5.921875 -2.457031 5.921875 -2.90625 C 5.921875 -3.363281 5.816406 -3.773438 5.609375 -4.140625 C 5.398438 -4.515625 5.109375 -4.800781 4.734375 -5 C 4.367188 -5.207031 3.953125 -5.3125 3.484375 -5.3125 C 3.023438 -5.3125 2.609375 -5.207031 2.234375 -5 C 1.859375 -4.800781 1.5625 -4.515625 1.34375 -4.140625 C 1.132812 -3.773438 1.03125 -3.363281 1.03125 -2.90625 C 1.03125 -2.457031 1.132812 -2.046875 1.34375 -1.671875 C 1.5625 -1.304688 1.859375 -1.019531 2.234375 -0.8125 C 2.609375 -0.601562 3.023438 -0.5 3.484375 -0.5 Z M 3.484375 -0.5 "/></g></g></g><g fill="#ffffff" fill-opacity="1"><g transform="translate(112.919814, 56.105947)"><g><path d="M 3.296875 0.046875 C 2.535156 0.046875 1.941406 -0.164062 1.515625 -0.59375 C 1.097656 -1.03125 0.890625 -1.660156 0.890625 -2.484375 L 0.890625 -5.8125 L 1.515625 -5.8125 L 1.515625 -2.515625 C 1.515625 -1.835938 1.664062 -1.332031 1.96875 -1 C 2.269531 -0.664062 2.710938 -0.5 3.296875 -0.5 C 3.878906 -0.5 4.320312 -0.664062 4.625 -1 C 4.925781 -1.332031 5.078125 -1.835938 5.078125 -2.515625 L 5.078125 -5.8125 L 5.671875 -5.8125 L 5.671875 -2.484375 C 5.671875 -1.660156 5.460938 -1.03125 5.046875 -0.59375 C 4.628906 -0.164062 4.046875 0.046875 3.296875 0.046875 Z M 3.296875 0.046875 "/></g></g></g><g fill="#ffffff" fill-opacity="1"><g transform="translate(119.746691, 56.105947)"><g><path d="M 4.921875 0 L 3.59375 -1.875 C 3.4375 -1.851562 3.28125 -1.84375 3.125 -1.84375 L 1.5625 -1.84375 L 1.5625 0 L 0.953125 0 L 0.953125 -5.8125 L 3.125 -5.8125 C 3.863281 -5.8125 4.441406 -5.632812 4.859375 -5.28125 C 5.285156 -4.925781 5.5 -4.441406 5.5 -3.828125 C 5.5 -3.367188 5.382812 -2.984375 5.15625 -2.671875 C 4.925781 -2.359375 4.597656 -2.132812 4.171875 -2 L 5.59375 0 Z M 3.109375 -2.375 C 3.679688 -2.375 4.117188 -2.5 4.421875 -2.75 C 4.734375 -3.007812 4.890625 -3.367188 4.890625 -3.828125 C 4.890625 -4.296875 4.734375 -4.65625 4.421875 -4.90625 C 4.117188 -5.15625 3.679688 -5.28125 3.109375 -5.28125 L 1.5625 -5.28125 L 1.5625 -2.375 Z M 3.109375 -2.375 "/></g></g></g><g fill="#ffffff" fill-opacity="1"><g transform="translate(128.419561, 56.105947)"><g><path d="M 5.8125 -5.8125 L 5.8125 0 L 5.296875 0 L 1.5625 -4.71875 L 1.5625 0 L 0.953125 0 L 0.953125 -5.8125 L 1.453125 -5.8125 L 5.203125 -1.09375 L 5.203125 -5.8125 Z M 5.8125 -5.8125 "/></g></g></g><g fill="#ffffff" fill-opacity="1"><g transform="translate(135.421058, 56.105947)"><g><path d="M 3.296875 0.046875 C 2.535156 0.046875 1.941406 -0.164062 1.515625 -0.59375 C 1.097656 -1.03125 0.890625 -1.660156 0.890625 -2.484375 L 0.890625 -5.8125 L 1.515625 -5.8125 L 1.515625 -2.515625 C 1.515625 -1.835938 1.664062 -1.332031 1.96875 -1 C 2.269531 -0.664062 2.710938 -0.5 3.296875 -0.5 C 3.878906 -0.5 4.320312 -0.664062 4.625 -1 C 4.925781 -1.332031 5.078125 -1.835938 5.078125 -2.515625 L 5.078125 -5.8125 L 5.671875 -5.8125 L 5.671875 -2.484375 C 5.671875 -1.660156 5.460938 -1.03125 5.046875 -0.59375 C 4.628906 -0.164062 4.046875 0.046875 3.296875 0.046875 Z M 3.296875 0.046875 "/></g></g></g><g fill="#ffffff" fill-opacity="1"><g transform="translate(142.247935, 56.105947)"><g><path d="M 6.984375 -5.8125 L 6.984375 0 L 6.40625 0 L 6.40625 -4.65625 L 4.109375 -0.734375 L 3.828125 -0.734375 L 1.53125 -4.625 L 1.53125 0 L 0.953125 0 L 0.953125 -5.8125 L 1.453125 -5.8125 L 3.984375 -1.5 L 6.484375 -5.8125 Z M 6.984375 -5.8125 "/></g></g></g><g fill="#ffffff" fill-opacity="1"><g transform="translate(150.430206, 56.105947)"><g><path d="M 4.609375 -3 C 4.992188 -2.914062 5.289062 -2.75 5.5 -2.5 C 5.707031 -2.257812 5.8125 -1.941406 5.8125 -1.546875 C 5.8125 -1.054688 5.625 -0.675781 5.25 -0.40625 C 4.882812 -0.132812 4.34375 0 3.625 0 L 0.953125 0 L 0.953125 -5.8125 L 3.453125 -5.8125 C 4.109375 -5.8125 4.613281 -5.679688 4.96875 -5.421875 C 5.320312 -5.160156 5.5 -4.796875 5.5 -4.328125 C 5.5 -4.003906 5.421875 -3.726562 5.265625 -3.5 C 5.109375 -3.28125 4.890625 -3.113281 4.609375 -3 Z M 1.5625 -5.3125 L 1.5625 -3.203125 L 3.421875 -3.203125 C 3.890625 -3.203125 4.25 -3.289062 4.5 -3.46875 C 4.757812 -3.644531 4.890625 -3.90625 4.890625 -4.25 C 4.890625 -4.59375 4.757812 -4.851562 4.5 -5.03125 C 4.25 -5.21875 3.890625 -5.3125 3.421875 -5.3125 Z M 3.609375 -0.5 C 4.128906 -0.5 4.519531 -0.585938 4.78125 -0.765625 C 5.050781 -0.941406 5.1875 -1.222656 5.1875 -1.609375 C 5.1875 -2.328125 4.660156 -2.6875 3.609375 -2.6875 L 1.5625 -2.6875 L 1.5625 -0.5 Z M 3.609375 -0.5 "/></g></g></g><g fill="#ffffff" fill-opacity="1"><g transform="translate(156.941097, 56.105947)"><g><path d="M 5.0625 -0.53125 L 5.0625 0 L 0.953125 0 L 0.953125 -5.8125 L 4.9375 -5.8125 L 4.9375 -5.28125 L 1.5625 -5.28125 L 1.5625 -3.21875 L 4.578125 -3.21875 L 4.578125 -2.6875 L 1.5625 -2.6875 L 1.5625 -0.53125 Z M 5.0625 -0.53125 "/></g></g></g><g fill="#ffffff" fill-opacity="1"><g transform="translate(162.745194, 56.105947)"><g><path d="M 4.921875 0 L 3.59375 -1.875 C 3.4375 -1.851562 3.28125 -1.84375 3.125 -1.84375 L 1.5625 -1.84375 L 1.5625 0 L 0.953125 0 L 0.953125 -5.8125 L 3.125 -5.8125 C 3.863281 -5.8125 4.441406 -5.632812 4.859375 -5.28125 C 5.285156 -4.925781 5.5 -4.441406 5.5 -3.828125 C 5.5 -3.367188 5.382812 -2.984375 5.15625 -2.671875 C 4.925781 -2.359375 4.597656 -2.132812 4.171875 -2 L 5.59375 0 Z M 3.109375 -2.375 C 3.679688 -2.375 4.117188 -2.5 4.421875 -2.75 C 4.734375 -3.007812 4.890625 -3.367188 4.890625 -3.828125 C 4.890625 -4.296875 4.734375 -4.65625 4.421875 -4.90625 C 4.117188 -5.15625 3.679688 -5.28125 3.109375 -5.28125 L 1.5625 -5.28125 L 1.5625 -2.375 Z M 3.109375 -2.375 "/></g></g></g><g fill="#ffffff" fill-opacity="1"><g transform="translate(168.9983, 56.105947)"><g><path d="M 2.546875 0.046875 C 2.117188 0.046875 1.707031 -0.0195312 1.3125 -0.15625 C 0.914062 -0.289062 0.609375 -0.472656 0.390625 -0.703125 L 0.625 -1.1875 C 0.84375 -0.96875 1.125 -0.789062 1.46875 -0.65625 C 1.820312 -0.53125 2.179688 -0.46875 2.546875 -0.46875 C 3.066406 -0.46875 3.457031 -0.5625 3.71875 -0.75 C 3.976562 -0.945312 4.109375 -1.195312 4.109375 -1.5 C 4.109375 -1.738281 4.035156 -1.925781 3.890625 -2.0625 C 3.753906 -2.195312 3.582031 -2.300781 3.375 -2.375 C 3.175781 -2.457031 2.894531 -2.539062 2.53125 -2.625 C 2.09375 -2.738281 1.742188 -2.84375 1.484375 -2.9375 C 1.222656 -3.039062 1 -3.195312 0.8125 -3.40625 C 0.625 -3.625 0.53125 -3.910156 0.53125 -4.265625 C 0.53125 -4.566406 0.609375 -4.835938 0.765625 -5.078125 C 0.921875 -5.316406 1.160156 -5.507812 1.484375 -5.65625 C 1.804688 -5.800781 2.203125 -5.875 2.671875 -5.875 C 3.003906 -5.875 3.328125 -5.828125 3.640625 -5.734375 C 3.960938 -5.640625 4.242188 -5.515625 4.484375 -5.359375 L 4.265625 -4.859375 C 4.023438 -5.023438 3.765625 -5.144531 3.484375 -5.21875 C 3.210938 -5.300781 2.941406 -5.34375 2.671875 -5.34375 C 2.160156 -5.34375 1.773438 -5.242188 1.515625 -5.046875 C 1.265625 -4.847656 1.140625 -4.597656 1.140625 -4.296875 C 1.140625 -4.054688 1.207031 -3.863281 1.34375 -3.71875 C 1.488281 -3.582031 1.664062 -3.476562 1.875 -3.40625 C 2.09375 -3.332031 2.382812 -3.25 2.75 -3.15625 C 3.175781 -3.050781 3.519531 -2.945312 3.78125 -2.84375 C 4.039062 -2.738281 4.257812 -2.582031 4.4375 -2.375 C 4.625 -2.164062 4.71875 -1.882812 4.71875 -1.53125 C 4.71875 -1.238281 4.640625 -0.972656 4.484375 -0.734375 C 4.328125 -0.492188 4.082031 -0.300781 3.75 -0.15625 C 3.425781 -0.0195312 3.023438 0.046875 2.546875 0.046875 Z M 2.546875 0.046875 "/></g></g></g><g fill="#ffffff" fill-opacity="1"><g transform="translate(174.361634, 56.105947)"><g/></g></g><g fill="#ffffff" fill-opacity="1"><g transform="translate(67.909019, 65.114142)"><g><path d="M 2.75 -2.734375 L 1.5625 -1.53125 L 1.5625 0 L 0.953125 0 L 0.953125 -5.8125 L 1.5625 -5.8125 L 1.5625 -2.296875 L 4.984375 -5.8125 L 5.6875 -5.8125 L 3.171875 -3.1875 L 5.859375 0 L 5.125 0 Z M 2.75 -2.734375 "/></g></g></g><g fill="#ffffff" fill-opacity="1"><g transform="translate(74.06235, 65.114142)"><g><path d="M 5.8125 -5.8125 L 5.8125 0 L 5.296875 0 L 1.5625 -4.71875 L 1.5625 0 L 0.953125 0 L 0.953125 -5.8125 L 1.453125 -5.8125 L 5.203125 -1.09375 L 5.203125 -5.8125 Z M 5.8125 -5.8125 "/></g></g></g><g fill="#ffffff" fill-opacity="1"><g transform="translate(81.063847, 65.114142)"><g><path d="M 3.484375 0.046875 C 2.910156 0.046875 2.390625 -0.078125 1.921875 -0.328125 C 1.453125 -0.585938 1.085938 -0.941406 0.828125 -1.390625 C 0.566406 -1.835938 0.4375 -2.34375 0.4375 -2.90625 C 0.4375 -3.46875 0.566406 -3.972656 0.828125 -4.421875 C 1.085938 -4.867188 1.453125 -5.222656 1.921875 -5.484375 C 2.390625 -5.742188 2.910156 -5.875 3.484375 -5.875 C 4.066406 -5.875 4.585938 -5.742188 5.046875 -5.484375 C 5.515625 -5.234375 5.878906 -4.878906 6.140625 -4.421875 C 6.410156 -3.972656 6.546875 -3.46875 6.546875 -2.90625 C 6.546875 -2.34375 6.410156 -1.835938 6.140625 -1.390625 C 5.878906 -0.941406 5.515625 -0.585938 5.046875 -0.328125 C 4.585938 -0.078125 4.066406 0.046875 3.484375 0.046875 Z M 3.484375 -0.5 C 3.953125 -0.5 4.367188 -0.601562 4.734375 -0.8125 C 5.109375 -1.019531 5.398438 -1.304688 5.609375 -1.671875 C 5.816406 -2.046875 5.921875 -2.457031 5.921875 -2.90625 C 5.921875 -3.363281 5.816406 -3.773438 5.609375 -4.140625 C 5.398438 -4.515625 5.109375 -4.800781 4.734375 -5 C 4.367188 -5.207031 3.953125 -5.3125 3.484375 -5.3125 C 3.023438 -5.3125 2.609375 -5.207031 2.234375 -5 C 1.859375 -4.800781 1.5625 -4.515625 1.34375 -4.140625 C 1.132812 -3.773438 1.03125 -3.363281 1.03125 -2.90625 C 1.03125 -2.457031 1.132812 -2.046875 1.34375 -1.671875 C 1.5625 -1.304688 1.859375 -1.019531 2.234375 -0.8125 C 2.609375 -0.601562 3.023438 -0.5 3.484375 -0.5 Z M 3.484375 -0.5 "/></g></g></g><g fill="#ffffff" fill-opacity="1"><g transform="translate(88.281538, 65.114142)"><g><path d="M 8.9375 -5.8125 L 6.96875 0 L 6.328125 0 L 4.625 -4.96875 L 2.90625 0 L 2.265625 0 L 0.3125 -5.8125 L 0.9375 -5.8125 L 2.625 -0.8125 L 4.359375 -5.8125 L 4.921875 -5.8125 L 6.640625 -0.796875 L 8.34375 -5.8125 Z M 8.9375 -5.8125 "/></g></g></g><g fill="#ffffff" fill-opacity="1"><g transform="translate(97.760994, 65.114142)"><g/></g></g><g fill="#ffffff" fill-opacity="1"><g transform="translate(100.180753, 65.114142)"><g><path d="M 2.9375 -2.015625 L 2.9375 0 L 2.328125 0 L 2.328125 -2.015625 L 0.015625 -5.8125 L 0.671875 -5.8125 L 2.65625 -2.546875 L 4.65625 -5.8125 L 5.265625 -5.8125 Z M 2.9375 -2.015625 "/></g></g></g><g fill="#ffffff" fill-opacity="1"><g transform="translate(105.702123, 65.114142)"><g><path d="M 3.484375 0.046875 C 2.910156 0.046875 2.390625 -0.078125 1.921875 -0.328125 C 1.453125 -0.585938 1.085938 -0.941406 0.828125 -1.390625 C 0.566406 -1.835938 0.4375 -2.34375 0.4375 -2.90625 C 0.4375 -3.46875 0.566406 -3.972656 0.828125 -4.421875 C 1.085938 -4.867188 1.453125 -5.222656 1.921875 -5.484375 C 2.390625 -5.742188 2.910156 -5.875 3.484375 -5.875 C 4.066406 -5.875 4.585938 -5.742188 5.046875 -5.484375 C 5.515625 -5.234375 5.878906 -4.878906 6.140625 -4.421875 C 6.410156 -3.972656 6.546875 -3.46875 6.546875 -2.90625 C 6.546875 -2.34375 6.410156 -1.835938 6.140625 -1.390625 C 5.878906 -0.941406 5.515625 -0.585938 5.046875 -0.328125 C 4.585938 -0.078125 4.066406 0.046875 3.484375 0.046875 Z M 3.484375 -0.5 C 3.953125 -0.5 4.367188 -0.601562 4.734375 -0.8125 C 5.109375 -1.019531 5.398438 -1.304688 5.609375 -1.671875 C 5.816406 -2.046875 5.921875 -2.457031 5.921875 -2.90625 C 5.921875 -3.363281 5.816406 -3.773438 5.609375 -4.140625 C 5.398438 -4.515625 5.109375 -4.800781 4.734375 -5 C 4.367188 -5.207031 3.953125 -5.3125 3.484375 -5.3125 C 3.023438 -5.3125 2.609375 -5.207031 2.234375 -5 C 1.859375 -4.800781 1.5625 -4.515625 1.34375 -4.140625 C 1.132812 -3.773438 1.03125 -3.363281 1.03125 -2.90625 C 1.03125 -2.457031 1.132812 -2.046875 1.34375 -1.671875 C 1.5625 -1.304688 1.859375 -1.019531 2.234375 -0.8125 C 2.609375 -0.601562 3.023438 -0.5 3.484375 -0.5 Z M 3.484375 -0.5 "/></g></g></g><g fill="#ffffff" fill-opacity="1"><g transform="translate(112.919814, 65.114142)"><g><path d="M 3.296875 0.046875 C 2.535156 0.046875 1.941406 -0.164062 1.515625 -0.59375 C 1.097656 -1.03125 0.890625 -1.660156 0.890625 -2.484375 L 0.890625 -5.8125 L 1.515625 -5.8125 L 1.515625 -2.515625 C 1.515625 -1.835938 1.664062 -1.332031 1.96875 -1 C 2.269531 -0.664062 2.710938 -0.5 3.296875 -0.5 C 3.878906 -0.5 4.320312 -0.664062 4.625 -1 C 4.925781 -1.332031 5.078125 -1.835938 5.078125 -2.515625 L 5.078125 -5.8125 L 5.671875 -5.8125 L 5.671875 -2.484375 C 5.671875 -1.660156 5.460938 -1.03125 5.046875 -0.59375 C 4.628906 -0.164062 4.046875 0.046875 3.296875 0.046875 Z M 3.296875 0.046875 "/></g></g></g><g fill="#ffffff" fill-opacity="1"><g transform="translate(119.746691, 65.114142)"><g><path d="M 4.921875 0 L 3.59375 -1.875 C 3.4375 -1.851562 3.28125 -1.84375 3.125 -1.84375 L 1.5625 -1.84375 L 1.5625 0 L 0.953125 0 L 0.953125 -5.8125 L 3.125 -5.8125 C 3.863281 -5.8125 4.441406 -5.632812 4.859375 -5.28125 C 5.285156 -4.925781 5.5 -4.441406 5.5 -3.828125 C 5.5 -3.367188 5.382812 -2.984375 5.15625 -2.671875 C 4.925781 -2.359375 4.597656 -2.132812 4.171875 -2 L 5.59375 0 Z M 3.109375 -2.375 C 3.679688 -2.375 4.117188 -2.5 4.421875 -2.75 C 4.734375 -3.007812 4.890625 -3.367188 4.890625 -3.828125 C 4.890625 -4.296875 4.734375 -4.65625 4.421875 -4.90625 C 4.117188 -5.15625 3.679688 -5.28125 3.109375 -5.28125 L 1.5625 -5.28125 L 1.5625 -2.375 Z M 3.109375 -2.375 "/></g></g></g><g fill="#ffffff" fill-opacity="1"><g transform="translate(128.419561, 65.114142)"><g><path d="M 5.8125 -5.8125 L 5.8125 0 L 5.203125 0 L 5.203125 -2.6875 L 1.5625 -2.6875 L 1.5625 0 L 0.953125 0 L 0.953125 -5.8125 L 1.5625 -5.8125 L 1.5625 -3.21875 L 5.203125 -3.21875 L 5.203125 -5.8125 Z M 5.8125 -5.8125 "/></g></g></g><g fill="#ffffff" fill-opacity="1"><g transform="translate(135.421058, 65.114142)"><g><path d="M 5.0625 -0.53125 L 5.0625 0 L 0.953125 0 L 0.953125 -5.8125 L 4.9375 -5.8125 L 4.9375 -5.28125 L 1.5625 -5.28125 L 1.5625 -3.21875 L 4.578125 -3.21875 L 4.578125 -2.6875 L 1.5625 -2.6875 L 1.5625 -0.53125 Z M 5.0625 -0.53125 "/></g></g></g><g fill="#ffffff" fill-opacity="1"><g transform="translate(141.22515, 65.114142)"><g><path d="M 4.59375 -1.546875 L 1.359375 -1.546875 L 0.65625 0 L 0.015625 0 L 2.671875 -5.8125 L 3.28125 -5.8125 L 5.9375 0 L 5.296875 0 Z M 4.375 -2.046875 L 2.96875 -5.171875 L 1.578125 -2.046875 Z M 4.375 -2.046875 "/></g></g></g><g fill="#ffffff" fill-opacity="1"><g transform="translate(147.428376, 65.114142)"><g><path d="M 0.953125 -5.8125 L 1.5625 -5.8125 L 1.5625 -0.53125 L 4.828125 -0.53125 L 4.828125 0 L 0.953125 0 Z M 0.953125 -5.8125 "/></g></g></g><g fill="#ffffff" fill-opacity="1"><g transform="translate(152.567242, 65.114142)"><g><path d="M 2.078125 -5.28125 L 0.03125 -5.28125 L 0.03125 -5.8125 L 4.734375 -5.8125 L 4.734375 -5.28125 L 2.6875 -5.28125 L 2.6875 0 L 2.078125 0 Z M 2.078125 -5.28125 "/></g></g></g><g fill="#ffffff" fill-opacity="1"><g transform="translate(157.581379, 65.114142)"><g><path d="M 5.8125 -5.8125 L 5.8125 0 L 5.203125 0 L 5.203125 -2.6875 L 1.5625 -2.6875 L 1.5625 0 L 0.953125 0 L 0.953125 -5.8125 L 1.5625 -5.8125 L 1.5625 -3.21875 L 5.203125 -3.21875 L 5.203125 -5.8125 Z M 5.8125 -5.8125 "/></g></g></g></svg>