<svg xmlns="http://www.w3.org/2000/svg" xmlns:xlink="http://www.w3.org/1999/xlink" width="300" zoomAndPan="magnify" viewBox="0 0 224.87999 74.999997" height="100" preserveAspectRatio="xMidYMid meet" version="1.0"><defs><g/><clipPath id="c8b4ede7f6"><path d="M 12 46 L 32 46 L 32 59.125 L 12 59.125 Z M 12 46 " clip-rule="nonzero"/></clipPath><clipPath id="895cb7c5bf"><path d="M 33 29 L 55 29 L 55 59.125 L 33 59.125 Z M 33 29 " clip-rule="nonzero"/></clipPath><clipPath id="eaee580bd2"><path d="M 9 15.648438 L 32 15.648438 L 32 50 L 9 50 Z M 9 15.648438 " clip-rule="nonzero"/></clipPath><clipPath id="8c6afa89d3"><path d="M 33 15.648438 L 52 15.648438 L 52 45 L 33 45 Z M 33 15.648438 " clip-rule="nonzero"/></clipPath><clipPath id="d0b442af72"><path d="M 5 16 L 56.988281 16 L 56.988281 55 L 5 55 Z M 5 16 " clip-rule="nonzero"/></clipPath><clipPath id="7b1894588c"><path d="M 0 9.261719 L 56.882812 9.261719 L 56.882812 66 L 0 66 Z M 0 9.261719 " clip-rule="nonzero"/></clipPath><clipPath id="96ce4c1de7"><path d="M 9 46 L 29 46 L 29 59.125 L 9 59.125 Z M 9 46 " clip-rule="nonzero"/></clipPath><clipPath id="8a4e4bd0aa"><path d="M 30 29 L 52 29 L 52 59.125 L 30 59.125 Z M 30 29 " clip-rule="nonzero"/></clipPath><clipPath id="baa81f3a6d"><path d="M 6 15.648438 L 29 15.648438 L 29 50 L 6 50 Z M 6 15.648438 " clip-rule="nonzero"/></clipPath><clipPath id="c59450c358"><path d="M 30 15.648438 L 49 15.648438 L 49 45 L 30 45 Z M 30 15.648438 " clip-rule="nonzero"/></clipPath><clipPath id="b9116b6e83"><path d="M 1.246094 16 L 53.945312 16 L 53.945312 55 L 1.246094 55 Z M 1.246094 16 " clip-rule="nonzero"/></clipPath></defs><g fill="#ffffff" fill-opacity="1"><g transform="translate(64.3648, 45.930587)"><g><path d="M 2.417969 0 L 11.894531 0 C 15.984375 0 18.75 -2.246094 18.75 -5.644531 C 18.75 -7.804688 17.625 -9.53125 15.722656 -10.367188 C 17.25 -11.261719 18.144531 -12.84375 18.144531 -14.746094 C 18.144531 -18.058594 15.523438 -20.160156 11.433594 -20.160156 L 2.417969 -20.160156 Z M 6.941406 -3.628906 L 6.941406 -8.46875 L 11.203125 -8.46875 C 13.015625 -8.46875 14.054688 -7.574219 14.054688 -6.046875 C 14.054688 -4.523438 13.015625 -3.628906 11.203125 -3.628906 Z M 6.941406 -11.953125 L 6.941406 -16.53125 L 10.742188 -16.53125 C 12.5 -16.53125 13.476562 -15.722656 13.476562 -14.253906 C 13.476562 -12.785156 12.5 -11.953125 10.742188 -11.953125 Z M 6.941406 -11.953125 "/></g></g></g><g fill="#ffffff" fill-opacity="1"><g transform="translate(84.200581, 45.930587)"><g><path d="M 2.417969 0 L 15.8125 0 L 15.8125 -4.292969 L 7 -4.292969 L 7 -20.160156 L 2.417969 -20.160156 Z M 2.417969 0 "/></g></g></g><g fill="#ffffff" fill-opacity="1"><g transform="translate(100.783181, 45.930587)"><g><path d="M 11.980469 0.402344 C 18.289062 0.402344 22.75 -3.917969 22.75 -10.078125 C 22.75 -16.242188 18.289062 -20.5625 11.980469 -20.5625 C 5.671875 -20.5625 1.238281 -16.242188 1.238281 -10.078125 C 1.238281 -3.917969 5.671875 0.402344 11.980469 0.402344 Z M 5.902344 -10.078125 C 5.902344 -13.707031 8.410156 -16.214844 11.980469 -16.214844 C 15.582031 -16.214844 18.058594 -13.707031 18.058594 -10.078125 C 18.058594 -6.449219 15.582031 -3.945312 11.980469 -3.945312 C 8.410156 -3.945312 5.902344 -6.449219 5.902344 -10.078125 Z M 5.902344 -10.078125 "/></g></g></g><g fill="#ffffff" fill-opacity="1"><g transform="translate(124.764614, 45.930587)"><g><path d="M 11.980469 0.402344 C 18.289062 0.402344 22.75 -3.917969 22.75 -10.078125 C 22.75 -16.242188 18.289062 -20.5625 11.980469 -20.5625 C 5.671875 -20.5625 1.238281 -16.242188 1.238281 -10.078125 C 1.238281 -3.917969 5.671875 0.402344 11.980469 0.402344 Z M 5.902344 -10.078125 C 5.902344 -13.707031 8.410156 -16.214844 11.980469 -16.214844 C 15.582031 -16.214844 18.058594 -13.707031 18.058594 -10.078125 C 18.058594 -6.449219 15.582031 -3.945312 11.980469 -3.945312 C 8.410156 -3.945312 5.902344 -6.449219 5.902344 -10.078125 Z M 5.902344 -10.078125 "/></g></g></g><g fill="#ffffff" fill-opacity="1"><g transform="translate(148.746048, 45.930587)"><g><path d="M 2.417969 0 L 10.398438 0 C 16.761719 0 21.023438 -4.0625 21.023438 -10.078125 C 21.023438 -16.070312 16.761719 -20.160156 10.398438 -20.160156 L 2.417969 -20.160156 Z M 7 -4.203125 L 7 -15.953125 L 10.253906 -15.953125 C 13.882812 -15.953125 16.328125 -13.621094 16.328125 -10.078125 C 16.328125 -6.539062 13.882812 -4.203125 10.308594 -4.203125 Z M 7 -4.203125 "/></g></g></g><g fill="#ffffff" fill-opacity="1"><g transform="translate(170.971966, 45.930587)"><g/></g></g><g fill="#ff3131" fill-opacity="1"><g transform="translate(177.202028, 47.032189)"><g><path d="M 3.453125 0 L 9.988281 0 L 9.988281 -28.769531 L 3.453125 -28.769531 Z M 3.453125 0 "/></g></g></g><g fill="#ff3131" fill-opacity="1"><g transform="translate(190.639565, 47.032189)"><g><path d="M 17.097656 0.574219 L 18 0.535156 L 18.660156 2.136719 C 20.179688 5.714844 22.976562 7.480469 27.167969 7.480469 L 30.824219 7.480469 L 30.824219 2.425781 L 28.566406 2.425781 C 25.894531 2.425781 25.113281 1.972656 24.25 0 L 23.921875 -0.78125 C 29.140625 -3.042969 32.46875 -8.054688 32.46875 -14.386719 C 32.46875 -23.179688 26.097656 -29.34375 17.097656 -29.34375 C 8.097656 -29.34375 1.765625 -23.179688 1.765625 -14.386719 C 1.765625 -5.589844 8.097656 0.574219 17.097656 0.574219 Z M 8.425781 -14.386719 C 8.425781 -19.5625 12 -23.140625 17.097656 -23.140625 C 22.234375 -23.140625 25.769531 -19.5625 25.769531 -14.386719 C 25.769531 -9.207031 22.234375 -5.628906 17.097656 -5.628906 C 12 -5.628906 8.425781 -9.207031 8.425781 -14.386719 Z M 8.425781 -14.386719 "/></g></g></g><g clip-path="url(#c8b4ede7f6)"><path fill="#ff3131" d="M 31.328125 46.832031 L 31.328125 53.328125 C 31.328125 56.660156 28.636719 59.347656 25.304688 59.347656 C 22.875 59.347656 20.785156 57.902344 19.84375 55.832031 C 21.003906 55.324219 21.902344 54.746094 21.902344 54.746094 C 21.695312 54.777344 21.480469 54.796875 21.242188 54.828125 C 21.105469 54.828125 20.953125 54.828125 20.796875 54.828125 C 20.714844 54.828125 20.640625 54.828125 20.589844 54.828125 C 20.507812 54.828125 20.433594 54.828125 20.351562 54.828125 C 20.269531 54.796875 20.195312 54.796875 20.144531 54.796875 C 20.0625 54.796875 19.988281 54.796875 19.90625 54.765625 C 19.824219 54.765625 19.773438 54.765625 19.699219 54.734375 C 19.617188 54.734375 19.566406 54.734375 19.492188 54.703125 C 16.484375 54.261719 13.949219 52.253906 12.789062 49.554688 C 12.820312 49.554688 12.875 49.554688 12.894531 49.585938 C 12.945312 49.585938 12.996094 49.585938 13.027344 49.617188 C 13.082031 49.617188 13.113281 49.648438 13.164062 49.648438 C 13.195312 49.648438 13.246094 49.679688 13.296875 49.679688 C 13.328125 49.679688 13.378906 49.707031 13.402344 49.707031 C 13.453125 49.707031 13.484375 49.707031 13.535156 49.738281 C 13.585938 49.738281 13.617188 49.738281 13.671875 49.769531 C 13.699219 49.769531 13.753906 49.769531 13.804688 49.769531 C 13.835938 49.800781 13.886719 49.800781 13.90625 49.800781 C 13.960938 49.832031 14.011719 49.832031 14.042969 49.832031 C 14.09375 49.832031 14.125 49.863281 14.175781 49.863281 C 14.226562 49.863281 14.257812 49.863281 14.3125 49.863281 C 14.34375 49.894531 14.394531 49.894531 14.445312 49.894531 C 14.476562 49.894531 14.527344 49.925781 14.550781 49.925781 L 14.582031 49.925781 C 14.609375 49.925781 14.664062 49.925781 14.683594 49.925781 C 14.734375 49.957031 14.785156 49.957031 14.816406 49.957031 L 14.953125 49.957031 C 15.003906 49.988281 15.035156 49.988281 15.085938 49.988281 C 15.140625 49.988281 15.167969 49.988281 15.222656 49.988281 C 15.253906 50.019531 15.304688 50.019531 15.355469 50.019531 C 15.386719 50.019531 15.4375 50.019531 15.492188 50.019531 C 15.519531 50.019531 15.574219 50.019531 15.59375 50.050781 C 15.644531 50.050781 15.699219 50.050781 15.726562 50.050781 C 15.78125 50.050781 15.832031 50.050781 15.863281 50.050781 C 15.914062 50.050781 15.945312 50.050781 15.996094 50.050781 C 16.050781 50.050781 16.078125 50.082031 16.132812 50.082031 C 16.183594 50.082031 16.214844 50.082031 16.265625 50.082031 L 16.636719 50.082031 C 16.691406 50.082031 16.742188 50.082031 16.773438 50.082031 L 17.042969 50.082031 C 17.09375 50.082031 17.125 50.082031 17.175781 50.082031 L 17.3125 50.082031 C 17.34375 50.082031 17.394531 50.082031 17.445312 50.082031 L 17.546875 50.082031 C 17.652344 50.082031 17.734375 50.082031 17.816406 50.082031 L 18.191406 50.082031 C 18.292969 50.050781 18.375 50.050781 18.460938 50.050781 L 18.695312 50.050781 L 18.832031 50.019531 L 19.070312 50.019531 L 19.203125 49.988281 L 19.339844 49.988281 L 19.441406 49.957031 L 19.679688 49.957031 L 19.8125 49.925781 L 19.917969 49.925781 L 20.050781 49.894531 L 20.15625 49.894531 L 20.289062 49.863281 L 20.394531 49.863281 L 20.527344 49.832031 L 20.632812 49.832031 L 20.734375 49.800781 L 20.867188 49.769531 C 24.273438 49.285156 27.890625 48.230469 31.328125 46.832031 Z M 31.328125 46.832031 " fill-opacity="1" fill-rule="nonzero"/></g><g clip-path="url(#895cb7c5bf)"><path fill="#ff3131" d="M 33.117188 46.035156 L 33.117188 53.328125 C 33.117188 56.660156 35.804688 59.347656 39.113281 59.347656 C 41.546875 59.347656 43.636719 57.902344 44.609375 55.832031 C 43.449219 55.324219 42.519531 54.746094 42.519531 54.746094 C 42.726562 54.777344 42.960938 54.796875 43.179688 54.828125 C 43.335938 54.828125 43.5 54.828125 43.625 54.828125 C 43.707031 54.828125 43.78125 54.828125 43.863281 54.828125 C 43.945312 54.828125 44.019531 54.828125 44.070312 54.828125 L 44.101562 54.828125 C 44.152344 54.796875 44.234375 54.796875 44.308594 54.796875 C 44.390625 54.796875 44.460938 54.796875 44.515625 54.765625 L 44.546875 54.765625 C 44.597656 54.765625 44.679688 54.765625 44.753906 54.734375 C 44.835938 54.734375 44.886719 54.734375 44.960938 54.703125 C 49.160156 54.074219 52.375 50.421875 52.375 46.046875 C 52.375 45.179688 52.242188 44.308594 52.003906 43.511719 C 51.082031 43.597656 50.046875 43.429688 50.046875 43.429688 C 52.632812 41.898438 54.382812 39.097656 54.382812 35.878906 C 54.382812 33.53125 53.460938 31.390625 51.953125 29.828125 C 51.921875 29.910156 51.867188 30.015625 51.816406 30.097656 C 51.765625 30.179688 51.714844 30.285156 51.660156 30.367188 C 51.609375 30.46875 51.578125 30.550781 51.527344 30.636719 C 51.476562 30.738281 51.425781 30.820312 51.371094 30.90625 C 51.320312 31.007812 51.269531 31.089844 51.21875 31.171875 C 51.164062 31.257812 51.113281 31.359375 51.0625 31.441406 C 51.011719 31.523438 50.957031 31.628906 50.90625 31.710938 C 50.855469 31.792969 50.804688 31.867188 50.71875 31.980469 C 50.667969 32.0625 50.617188 32.136719 50.566406 32.21875 C 50.511719 32.300781 50.460938 32.402344 50.378906 32.488281 C 50.328125 32.570312 50.277344 32.640625 50.222656 32.726562 C 50.171875 32.828125 50.089844 32.910156 50.039062 32.992188 C 49.984375 33.078125 49.902344 33.148438 49.851562 33.230469 C 49.800781 33.3125 49.71875 33.386719 49.664062 33.5 C 49.613281 33.582031 49.53125 33.65625 49.480469 33.738281 C 49.425781 33.820312 49.34375 33.894531 49.292969 33.976562 C 49.210938 34.058594 49.160156 34.132812 49.085938 34.214844 C 49.035156 34.296875 48.953125 34.371094 48.898438 34.453125 C 48.816406 34.535156 48.765625 34.605469 48.691406 34.691406 C 48.640625 34.773438 48.558594 34.84375 48.507812 34.929688 C 48.425781 35.011719 48.371094 35.082031 48.300781 35.164062 C 48.25 35.25 48.164062 35.320312 48.09375 35.402344 C 48.042969 35.488281 47.957031 35.558594 47.886719 35.640625 C 47.835938 35.722656 47.75 35.796875 47.679688 35.878906 C 47.628906 35.929688 47.546875 36.015625 47.472656 36.085938 C 47.421875 36.167969 47.339844 36.242188 47.265625 36.324219 C 47.183594 36.40625 47.132812 36.457031 47.058594 36.53125 C 46.976562 36.613281 46.902344 36.6875 46.851562 36.769531 C 46.769531 36.820312 46.695312 36.902344 46.613281 36.976562 C 46.53125 37.058594 46.480469 37.132812 46.40625 37.183594 C 46.324219 37.265625 46.253906 37.339844 46.167969 37.421875 C 46.085938 37.472656 46.035156 37.554688 45.960938 37.628906 C 45.878906 37.679688 45.808594 37.761719 45.722656 37.835938 C 45.640625 37.886719 45.570312 37.96875 45.488281 38.042969 C 45.402344 38.09375 45.332031 38.175781 45.25 38.25 C 45.167969 38.300781 45.113281 38.382812 45.042969 38.457031 C 44.960938 38.507812 44.886719 38.589844 44.804688 38.640625 C 44.722656 38.722656 44.648438 38.777344 44.566406 38.847656 C 44.484375 38.929688 44.410156 38.984375 44.328125 39.054688 C 44.246094 39.105469 44.171875 39.191406 44.089844 39.242188 C 44.007812 39.324219 43.902344 39.375 43.820312 39.449219 C 43.738281 39.5 43.667969 39.582031 43.582031 39.632812 C 43.5 39.71875 43.429688 39.769531 43.34375 39.839844 C 43.261719 39.894531 43.191406 39.945312 43.109375 40.027344 C 43.023438 40.078125 42.953125 40.160156 42.839844 40.214844 C 42.757812 40.265625 42.683594 40.347656 42.601562 40.398438 C 42.519531 40.484375 42.445312 40.535156 42.363281 40.585938 C 42.28125 40.667969 42.207031 40.71875 42.09375 40.773438 C 42.011719 40.855469 41.9375 40.90625 41.855469 40.957031 C 41.773438 41.011719 41.699219 41.09375 41.585938 41.144531 C 41.503906 41.195312 41.433594 41.246094 41.347656 41.332031 C 41.265625 41.382812 41.195312 41.433594 41.082031 41.484375 C 40.996094 41.570312 40.925781 41.621094 40.84375 41.671875 C 40.757812 41.722656 40.6875 41.777344 40.574219 41.859375 C 40.492188 41.910156 40.417969 41.960938 40.335938 42.011719 C 40.253906 42.066406 40.148438 42.117188 40.066406 42.167969 C 39.984375 42.21875 39.910156 42.304688 39.828125 42.355469 C 39.726562 42.40625 39.644531 42.457031 39.558594 42.511719 C 39.476562 42.5625 39.40625 42.613281 39.289062 42.664062 C 39.207031 42.714844 39.136719 42.769531 39.054688 42.820312 C 38.96875 42.871094 38.867188 42.921875 38.785156 42.976562 C 38.703125 43.027344 38.628906 43.078125 38.546875 43.128906 C 38.441406 43.183594 38.359375 43.234375 38.277344 43.285156 C 38.195312 43.335938 38.121094 43.390625 38.007812 43.441406 C 36.476562 44.382812 34.832031 45.25 33.117188 46.035156 Z M 33.117188 46.035156 " fill-opacity="1" fill-rule="nonzero"/></g><g clip-path="url(#eaee580bd2)"><path fill="#ffffff" d="M 25.679688 23.25 C 27.023438 23.539062 28.347656 22.671875 28.636719 21.328125 C 28.925781 19.980469 28.078125 18.636719 26.734375 18.347656 C 25.359375 18.058594 24.042969 18.925781 23.753906 20.269531 C 23.464844 21.617188 24.324219 22.960938 25.679688 23.25 Z M 26.597656 35.816406 C 27.683594 36.023438 28.710938 35.371094 28.949219 34.285156 C 29.183594 33.230469 28.503906 32.175781 27.4375 31.960938 C 26.351562 31.722656 25.328125 32.402344 25.089844 33.46875 C 24.851562 34.523438 25.542969 35.578125 26.597656 35.816406 Z M 17.777344 33.757812 C 17.0625 33.625 16.378906 33.757812 15.800781 34.132812 C 15.242188 34.503906 14.828125 35.082031 14.664062 35.765625 C 14.527344 36.480469 14.664062 37.191406 15.035156 37.742188 C 15.40625 38.289062 15.988281 38.714844 16.667969 38.878906 C 17.382812 39.035156 18.097656 38.878906 18.644531 38.507812 C 19.203125 38.132812 19.617188 37.585938 19.78125 36.871094 C 19.9375 36.160156 19.78125 35.476562 19.410156 34.898438 C 19.070312 34.347656 18.488281 33.925781 17.777344 33.757812 Z M 13.710938 38.601562 C 14.289062 39.5 15.222656 40.183594 16.347656 40.421875 C 17.488281 40.660156 18.59375 40.421875 19.492188 39.839844 C 19.679688 39.738281 19.867188 39.601562 20.019531 39.449219 L 22.347656 41.320312 C 22.246094 41.527344 22.160156 41.746094 22.109375 41.953125 C 21.789062 43.460938 22.742188 44.929688 24.25 45.25 C 25.761719 45.570312 27.210938 44.621094 27.550781 43.109375 C 27.871094 41.628906 26.921875 40.152344 25.410156 39.832031 C 24.59375 39.644531 23.777344 39.863281 23.132812 40.335938 L 20.839844 38.464844 C 21.042969 38.074219 21.230469 37.667969 21.3125 37.191406 C 21.582031 36.085938 21.34375 34.949219 20.753906 34.046875 C 20.464844 33.605469 20.074219 33.199219 19.648438 32.890625 L 21.023438 30.085938 L 21.074219 30.117188 C 22.554688 30.4375 24.035156 29.488281 24.355469 27.976562 C 24.675781 26.46875 23.722656 25.019531 22.246094 24.675781 C 20.734375 24.355469 19.265625 25.308594 18.945312 26.820312 C 18.707031 27.875 19.101562 28.90625 19.898438 29.539062 L 18.5 32.34375 C 18.367188 32.289062 18.230469 32.257812 18.128906 32.238281 C 16.988281 32 15.851562 32.238281 14.960938 32.816406 C 14.074219 33.398438 13.378906 34.328125 13.140625 35.457031 C 12.90625 36.582031 13.132812 37.699219 13.710938 38.601562 Z M 26.414062 15.648438 C 29.132812 15.648438 31.328125 17.859375 31.328125 20.582031 L 31.328125 45.664062 C 27.871094 47.113281 24.199219 48.230469 20.601562 48.707031 L 20.496094 48.738281 L 20.363281 48.738281 L 20.257812 48.769531 L 20.125 48.769531 L 20.019531 48.796875 L 19.886719 48.796875 L 19.78125 48.828125 L 19.648438 48.828125 L 19.546875 48.859375 L 19.410156 48.859375 L 19.277344 48.890625 L 19.140625 48.890625 L 19.039062 48.921875 L 18.78125 48.921875 L 18.644531 48.953125 L 18.375 48.953125 L 18.273438 48.984375 L 17.871094 48.984375 C 17.816406 48.984375 17.765625 48.984375 17.734375 48.984375 L 17.601562 48.984375 C 17.546875 49.015625 17.496094 49.015625 17.464844 49.015625 C 17.414062 49.015625 17.363281 49.015625 17.332031 49.015625 L 17.226562 49.015625 C 17.175781 49.015625 17.125 49.015625 17.09375 49.015625 C 17.042969 49.015625 16.988281 49.015625 16.960938 49.015625 C 16.90625 49.015625 16.855469 49.015625 16.824219 49.015625 L 16.792969 49.015625 C 16.761719 49.015625 16.710938 49.015625 16.660156 49.015625 C 16.628906 49.015625 16.578125 49.015625 16.523438 49.015625 L 16.390625 48.984375 C 16.359375 48.984375 16.308594 48.984375 16.253906 48.984375 C 16.203125 48.984375 16.171875 48.984375 16.121094 48.984375 C 16.070312 48.984375 16.039062 48.984375 15.988281 48.984375 L 15.851562 48.984375 C 15.800781 48.953125 15.75 48.953125 15.71875 48.953125 C 15.667969 48.953125 15.613281 48.953125 15.582031 48.953125 C 15.53125 48.953125 15.480469 48.953125 15.449219 48.953125 C 15.398438 48.921875 15.34375 48.921875 15.292969 48.921875 C 15.261719 48.921875 15.210938 48.921875 15.160156 48.921875 C 15.128906 48.921875 15.078125 48.890625 15.023438 48.890625 C 14.992188 48.890625 14.941406 48.890625 14.890625 48.890625 C 14.839844 48.859375 14.808594 48.859375 14.757812 48.859375 C 14.703125 48.859375 14.671875 48.859375 14.621094 48.859375 C 14.570312 48.828125 14.539062 48.828125 14.488281 48.828125 C 14.433594 48.828125 14.40625 48.796875 14.351562 48.796875 C 14.300781 48.796875 14.269531 48.796875 14.21875 48.769531 C 14.167969 48.769531 14.136719 48.769531 14.082031 48.769531 C 14.03125 48.738281 14 48.738281 13.949219 48.738281 C 13.898438 48.738281 13.867188 48.707031 13.816406 48.707031 C 13.761719 48.707031 13.730469 48.675781 13.679688 48.675781 C 13.628906 48.675781 13.597656 48.644531 13.546875 48.644531 C 13.492188 48.644531 13.464844 48.613281 13.410156 48.613281 C 13.359375 48.613281 13.328125 48.582031 13.277344 48.582031 C 13.226562 48.582031 13.195312 48.550781 13.140625 48.550781 C 13.089844 48.550781 13.058594 48.519531 13.007812 48.519531 C 12.976562 48.488281 12.925781 48.488281 12.875 48.488281 C 12.84375 48.457031 12.789062 48.457031 12.769531 48.4375 C 12.71875 48.4375 12.667969 48.4375 12.636719 48.40625 C 12.582031 48.40625 12.554688 48.375 12.5 48.375 C 12.449219 48.34375 12.417969 48.34375 12.367188 48.324219 C 12.335938 48.324219 12.285156 48.292969 12.230469 48.292969 C 12.046875 47.578125 11.941406 46.8125 11.941406 46.015625 C 11.941406 45.148438 12.078125 44.277344 12.316406 43.480469 C 13.234375 43.566406 14.269531 43.398438 14.269531 43.398438 C 11.683594 41.867188 9.96875 39.066406 9.96875 35.847656 C 9.96875 32.921875 11.394531 30.304688 13.609375 28.722656 C 14.558594 30.097656 16.90625 29.777344 16.90625 29.777344 C 15.695312 28.878906 14.933594 27.449219 14.933594 25.816406 C 14.933594 23.125 17.125 20.902344 19.84375 20.902344 C 19.875 20.902344 19.898438 20.902344 19.949219 20.902344 C 20.371094 22.144531 21.957031 22.773438 21.957031 22.773438 C 21.613281 22.113281 21.398438 21.347656 21.398438 20.53125 C 21.480469 17.859375 23.691406 15.648438 26.414062 15.648438 Z M 26.414062 15.648438 " fill-opacity="1" fill-rule="nonzero"/></g><g clip-path="url(#8c6afa89d3)"><path fill="#2e9ddd" d="M 38.773438 23.25 C 37.429688 23.539062 36.085938 22.671875 35.792969 21.328125 C 35.503906 19.980469 36.375 18.636719 37.71875 18.347656 C 39.0625 18.058594 40.40625 18.925781 40.699219 20.269531 C 40.988281 21.617188 40.117188 22.960938 38.773438 23.25 Z M 37.820312 35.816406 C 36.765625 36.023438 35.710938 35.371094 35.472656 34.285156 C 35.265625 33.230469 35.949219 32.175781 37.003906 31.960938 C 38.058594 31.722656 39.113281 32.402344 39.332031 33.46875 C 39.558594 34.523438 38.878906 35.578125 37.820312 35.816406 Z M 44.742188 37.222656 C 44.710938 37.121094 44.691406 36.988281 44.660156 36.882812 C 44.503906 36.167969 44.660156 35.488281 45 34.90625 C 45.371094 34.347656 45.953125 33.933594 46.664062 33.769531 C 47.109375 33.667969 47.585938 33.71875 48.011719 33.851562 L 47.980469 33.882812 C 47.929688 33.964844 47.84375 34.039062 47.792969 34.121094 C 47.710938 34.203125 47.660156 34.253906 47.585938 34.328125 C 47.535156 34.410156 47.453125 34.484375 47.378906 34.566406 C 47.328125 34.648438 47.246094 34.722656 47.195312 34.804688 C 47.109375 34.886719 47.058594 34.960938 46.988281 35.011719 C 46.902344 35.09375 46.851562 35.164062 46.78125 35.25 C 46.695312 35.332031 46.644531 35.402344 46.574219 35.457031 C 46.488281 35.539062 46.4375 35.609375 46.367188 35.695312 C 46.28125 35.777344 46.210938 35.828125 46.160156 35.898438 C 46.078125 35.984375 46.003906 36.054688 45.921875 36.105469 C 45.871094 36.191406 45.785156 36.261719 45.714844 36.34375 C 45.632812 36.398438 45.578125 36.480469 45.507812 36.550781 C 45.425781 36.605469 45.351562 36.6875 45.269531 36.757812 C 45.1875 36.808594 45.136719 36.894531 45.0625 36.964844 C 44.980469 37.015625 44.90625 37.101562 44.824219 37.171875 Z M 38.027344 15.648438 C 35.308594 15.648438 33.117188 17.859375 33.117188 20.582031 L 33.117188 44.847656 C 34.410156 44.238281 35.648438 43.605469 36.871094 42.921875 C 36.664062 41.496094 37.605469 40.121094 39.03125 39.832031 C 39.765625 39.675781 40.480469 39.800781 41.089844 40.203125 L 41.226562 40.101562 C 41.308594 40.015625 41.378906 39.964844 41.464844 39.914062 C 41.546875 39.863281 41.617188 39.777344 41.699219 39.726562 C 41.804688 39.675781 41.886719 39.59375 41.96875 39.542969 C 42.050781 39.488281 42.125 39.40625 42.207031 39.355469 C 42.289062 39.304688 42.363281 39.21875 42.445312 39.167969 C 42.527344 39.085938 42.601562 39.035156 42.683594 38.984375 C 42.765625 38.898438 42.839844 38.847656 42.921875 38.777344 C 43.003906 38.722656 43.078125 38.640625 43.160156 38.589844 C 43.242188 38.539062 43.316406 38.457031 43.398438 38.402344 L 43.5 38.300781 C 43.34375 37.957031 43.179688 37.585938 43.109375 37.191406 C 42.871094 36.085938 43.109375 34.949219 43.6875 34.046875 C 43.976562 33.605469 44.347656 33.199219 44.792969 32.890625 L 43.417969 30.085938 L 43.367188 30.117188 C 41.855469 30.4375 40.40625 29.488281 40.066406 27.976562 C 39.746094 26.46875 40.699219 25.019531 42.207031 24.675781 C 43.71875 24.355469 45.167969 25.308594 45.507812 26.820312 C 45.714844 27.875 45.320312 28.90625 44.554688 29.539062 L 45.929688 32.34375 C 46.066406 32.289062 46.199219 32.257812 46.324219 32.238281 C 47.277344 32.03125 48.226562 32.15625 49.015625 32.558594 L 49.117188 32.425781 C 49.167969 32.34375 49.222656 32.269531 49.273438 32.1875 C 49.355469 32.105469 49.40625 32.03125 49.457031 31.917969 C 49.511719 31.835938 49.5625 31.761719 49.644531 31.679688 C 49.695312 31.597656 49.75 31.523438 49.800781 31.441406 C 49.851562 31.339844 49.902344 31.257812 49.957031 31.171875 C 50.007812 31.089844 50.058594 31.019531 50.109375 30.90625 C 50.160156 30.820312 50.214844 30.75 50.265625 30.667969 C 50.316406 30.5625 50.367188 30.480469 50.421875 30.398438 C 50.472656 30.316406 50.523438 30.210938 50.574219 30.128906 C 50.628906 30.046875 50.679688 29.972656 50.710938 29.859375 C 50.761719 29.777344 50.8125 29.703125 50.867188 29.589844 C 50.917969 29.507812 50.949219 29.433594 51 29.320312 C 51.050781 29.238281 51.101562 29.167969 51.132812 29.054688 C 51 28.949219 50.867188 28.847656 50.710938 28.730469 C 49.757812 30.109375 47.429688 29.789062 47.429688 29.789062 C 48.621094 28.886719 49.40625 27.460938 49.40625 25.824219 C 49.40625 23.136719 47.195312 20.914062 44.492188 20.914062 C 44.441406 20.914062 44.410156 20.914062 44.390625 20.914062 C 43.964844 22.152344 42.351562 22.785156 42.351562 22.785156 C 42.726562 22.121094 42.910156 21.355469 42.910156 20.539062 C 42.941406 17.859375 40.75 15.648438 38.027344 15.648438 Z M 38.027344 15.648438 " fill-opacity="1" fill-rule="nonzero"/></g><g clip-path="url(#d0b442af72)"><path fill="#ff3131" d="M 51.660156 16.890625 C 54.640625 19.691406 54.484375 23.675781 53.039062 27.5 C 50.453125 34.339844 44.195312 39.832031 38.039062 43.480469 C 32.917969 46.523438 26.714844 48.972656 20.765625 49.769531 C 16.597656 50.351562 10.886719 50.277344 7.910156 46.8125 C 6.71875 45.4375 6.171875 43.75 6.089844 41.953125 C 6.058594 41.371094 6.089844 40.761719 6.140625 40.183594 C 5.902344 40.761719 5.695312 41.339844 5.53125 41.953125 C 4.289062 46.203125 5.292969 49.738281 9.117188 52.171875 C 9.59375 52.492188 10.089844 52.75 10.628906 52.988281 C 12.582031 53.910156 14.695312 54.332031 16.835938 54.414062 C 19.214844 54.496094 21.613281 54.144531 23.941406 53.566406 C 29.164062 52.273438 34.296875 49.707031 38.753906 46.75 C 43.957031 43.316406 49.179688 38.746094 52.800781 33.625 C 54.226562 31.617188 55.570312 29.320312 56.253906 26.941406 C 56.78125 25.121094 56.988281 23.117188 56.304688 21.296875 C 55.539062 19.183594 53.773438 17.808594 51.660156 16.890625 Z M 51.660156 16.890625 " fill-opacity="1" fill-rule="nonzero"/></g><g clip-path="url(#7b1894588c)"><path fill="#000a39" d="M 56.464844 53.914062 C 56.464844 60.4375 51.175781 65.726562 44.652344 65.726562 L 11.8125 65.726562 C 5.289062 65.726562 0 60.4375 0 53.914062 L 0 21.074219 C 0 14.550781 5.289062 9.261719 11.8125 9.261719 L 44.652344 9.261719 C 51.175781 9.261719 56.464844 14.550781 56.464844 21.074219 L 56.464844 53.914062 " fill-opacity="1" fill-rule="nonzero"/></g><path fill="#000a39" d="M 45.5625 37.492188 C 45.539062 42.636719 43.265625 47.445312 39.363281 50.78125 C 35.503906 54.082031 30.148438 55.453125 25.164062 54.558594 C 20.191406 53.664062 15.835938 50.582031 13.269531 46.242188 C 10.621094 41.765625 10.226562 36.261719 12 31.398438 C 13.6875 26.765625 17.535156 22.984375 22.136719 21.261719 C 27 19.441406 32.496094 19.929688 36.980469 22.53125 C 42.277344 25.605469 45.535156 31.394531 45.5625 37.492188 C 45.570312 38.996094 47.902344 39 47.894531 37.492188 C 47.871094 32.085938 45.632812 26.878906 41.699219 23.164062 C 37.753906 19.445312 32.328125 17.523438 26.925781 17.875 C 21.578125 18.226562 16.511719 20.820312 13.097656 24.949219 C 9.578125 29.207031 8.027344 34.765625 8.769531 40.234375 C 9.492188 45.558594 12.460938 50.300781 16.769531 53.464844 C 21.183594 56.707031 26.894531 57.804688 32.230469 56.75 C 36.5625 55.890625 40.5625 53.433594 43.367188 50.039062 C 46.285156 46.511719 47.875 42.070312 47.894531 37.492188 C 47.902344 35.988281 45.570312 35.992188 45.5625 37.492188 " fill-opacity="1" fill-rule="nonzero"/><g clip-path="url(#96ce4c1de7)"><path fill="#ff3131" d="M 28.28125 46.832031 L 28.28125 53.328125 C 28.28125 56.660156 25.59375 59.347656 22.261719 59.347656 C 19.832031 59.347656 17.742188 57.902344 16.800781 55.832031 C 17.960938 55.324219 18.859375 54.746094 18.859375 54.746094 C 18.652344 54.777344 18.4375 54.796875 18.199219 54.828125 C 18.0625 54.828125 17.910156 54.828125 17.753906 54.828125 C 17.671875 54.828125 17.597656 54.828125 17.546875 54.828125 C 17.464844 54.828125 17.390625 54.828125 17.308594 54.828125 C 17.226562 54.796875 17.152344 54.796875 17.101562 54.796875 C 17.019531 54.796875 16.945312 54.796875 16.863281 54.765625 C 16.78125 54.765625 16.730469 54.765625 16.65625 54.734375 C 16.574219 54.734375 16.523438 54.734375 16.449219 54.703125 C 13.441406 54.261719 10.90625 52.253906 9.746094 49.554688 C 9.777344 49.554688 9.828125 49.554688 9.851562 49.585938 C 9.902344 49.585938 9.953125 49.585938 9.984375 49.617188 C 10.035156 49.617188 10.066406 49.648438 10.121094 49.648438 C 10.152344 49.648438 10.203125 49.679688 10.253906 49.679688 C 10.285156 49.679688 10.335938 49.707031 10.359375 49.707031 C 10.410156 49.707031 10.441406 49.707031 10.492188 49.738281 C 10.542969 49.738281 10.574219 49.738281 10.625 49.769531 C 10.65625 49.769531 10.710938 49.769531 10.761719 49.769531 C 10.792969 49.800781 10.84375 49.800781 10.863281 49.800781 C 10.917969 49.832031 10.96875 49.832031 11 49.832031 C 11.050781 49.832031 11.082031 49.863281 11.132812 49.863281 C 11.183594 49.863281 11.214844 49.863281 11.269531 49.863281 C 11.296875 49.894531 11.351562 49.894531 11.402344 49.894531 C 11.433594 49.894531 11.484375 49.925781 11.503906 49.925781 L 11.535156 49.925781 C 11.566406 49.925781 11.621094 49.925781 11.640625 49.925781 C 11.691406 49.957031 11.742188 49.957031 11.773438 49.957031 L 11.910156 49.957031 C 11.960938 49.988281 11.992188 49.988281 12.042969 49.988281 C 12.09375 49.988281 12.125 49.988281 12.179688 49.988281 C 12.210938 50.019531 12.261719 50.019531 12.3125 50.019531 C 12.34375 50.019531 12.394531 50.019531 12.445312 50.019531 C 12.476562 50.019531 12.53125 50.019531 12.550781 50.050781 C 12.601562 50.050781 12.652344 50.050781 12.683594 50.050781 C 12.738281 50.050781 12.789062 50.050781 12.820312 50.050781 C 12.871094 50.050781 12.902344 50.050781 12.953125 50.050781 C 13.003906 50.050781 13.035156 50.082031 13.089844 50.082031 C 13.140625 50.082031 13.171875 50.082031 13.222656 50.082031 L 13.59375 50.082031 C 13.648438 50.082031 13.699219 50.082031 13.730469 50.082031 L 14 50.082031 C 14.050781 50.082031 14.082031 50.082031 14.132812 50.082031 L 14.265625 50.082031 C 14.296875 50.082031 14.351562 50.082031 14.402344 50.082031 L 14.503906 50.082031 C 14.609375 50.082031 14.691406 50.082031 14.773438 50.082031 L 15.148438 50.082031 C 15.25 50.050781 15.332031 50.050781 15.414062 50.050781 L 15.652344 50.050781 L 15.789062 50.019531 L 16.027344 50.019531 L 16.160156 49.988281 L 16.292969 49.988281 L 16.398438 49.957031 L 16.636719 49.957031 L 16.769531 49.925781 L 16.875 49.925781 L 17.007812 49.894531 L 17.113281 49.894531 L 17.246094 49.863281 L 17.351562 49.863281 L 17.484375 49.832031 L 17.585938 49.832031 L 17.691406 49.800781 L 17.824219 49.769531 C 21.230469 49.285156 24.847656 48.230469 28.28125 46.832031 Z M 28.28125 46.832031 " fill-opacity="1" fill-rule="nonzero"/></g><g clip-path="url(#8a4e4bd0aa)"><path fill="#ff3131" d="M 30.074219 46.035156 L 30.074219 53.328125 C 30.074219 56.660156 32.761719 59.347656 36.070312 59.347656 C 38.503906 59.347656 40.589844 57.902344 41.5625 55.832031 C 40.40625 55.324219 39.476562 54.746094 39.476562 54.746094 C 39.679688 54.777344 39.917969 54.796875 40.136719 54.828125 C 40.292969 54.828125 40.457031 54.828125 40.582031 54.828125 C 40.664062 54.828125 40.738281 54.828125 40.820312 54.828125 C 40.902344 54.828125 40.972656 54.828125 41.027344 54.828125 L 41.058594 54.828125 C 41.109375 54.796875 41.191406 54.796875 41.265625 54.796875 C 41.347656 54.796875 41.417969 54.796875 41.472656 54.765625 L 41.503906 54.765625 C 41.554688 54.765625 41.636719 54.765625 41.707031 54.734375 C 41.792969 54.734375 41.84375 54.734375 41.914062 54.703125 C 46.113281 54.074219 49.332031 50.421875 49.332031 46.046875 C 49.332031 45.179688 49.199219 44.308594 48.960938 43.511719 C 48.039062 43.597656 47.003906 43.429688 47.003906 43.429688 C 49.589844 41.898438 51.339844 39.097656 51.339844 35.878906 C 51.339844 33.53125 50.417969 31.390625 48.90625 29.828125 C 48.875 29.910156 48.824219 30.015625 48.773438 30.097656 C 48.722656 30.179688 48.671875 30.285156 48.617188 30.367188 C 48.566406 30.46875 48.535156 30.550781 48.484375 30.636719 C 48.433594 30.738281 48.378906 30.820312 48.328125 30.90625 C 48.277344 31.007812 48.226562 31.089844 48.171875 31.171875 C 48.121094 31.257812 48.070312 31.359375 48.019531 31.441406 C 47.964844 31.523438 47.914062 31.628906 47.863281 31.710938 C 47.8125 31.792969 47.761719 31.867188 47.675781 31.980469 C 47.625 32.0625 47.574219 32.136719 47.523438 32.21875 C 47.46875 32.300781 47.417969 32.402344 47.335938 32.488281 C 47.285156 32.570312 47.230469 32.640625 47.179688 32.726562 C 47.128906 32.828125 47.046875 32.910156 46.996094 32.992188 C 46.941406 33.078125 46.859375 33.148438 46.808594 33.230469 C 46.757812 33.3125 46.671875 33.386719 46.621094 33.5 C 46.570312 33.582031 46.488281 33.65625 46.4375 33.738281 C 46.382812 33.820312 46.300781 33.894531 46.25 33.976562 C 46.167969 34.058594 46.113281 34.132812 46.042969 34.214844 C 45.992188 34.296875 45.910156 34.371094 45.855469 34.453125 C 45.773438 34.535156 45.722656 34.605469 45.648438 34.691406 C 45.597656 34.773438 45.515625 34.84375 45.464844 34.929688 C 45.378906 35.011719 45.328125 35.082031 45.257812 35.164062 C 45.203125 35.25 45.121094 35.320312 45.050781 35.402344 C 45 35.488281 44.914062 35.558594 44.84375 35.640625 C 44.792969 35.722656 44.707031 35.796875 44.636719 35.878906 C 44.585938 35.929688 44.5 36.015625 44.429688 36.085938 C 44.378906 36.167969 44.292969 36.242188 44.222656 36.324219 C 44.140625 36.40625 44.085938 36.457031 44.015625 36.53125 C 43.933594 36.613281 43.859375 36.6875 43.808594 36.769531 C 43.726562 36.820312 43.652344 36.902344 43.570312 36.976562 C 43.488281 37.058594 43.4375 37.132812 43.363281 37.183594 C 43.28125 37.265625 43.207031 37.339844 43.125 37.421875 C 43.042969 37.472656 42.992188 37.554688 42.917969 37.628906 C 42.835938 37.679688 42.765625 37.761719 42.679688 37.835938 C 42.597656 37.886719 42.527344 37.96875 42.441406 38.042969 C 42.359375 38.09375 42.289062 38.175781 42.207031 38.25 C 42.121094 38.300781 42.070312 38.382812 42 38.457031 C 41.914062 38.507812 41.84375 38.589844 41.761719 38.640625 C 41.679688 38.722656 41.605469 38.777344 41.523438 38.847656 C 41.441406 38.929688 41.367188 38.984375 41.285156 39.054688 C 41.203125 39.105469 41.128906 39.191406 41.046875 39.242188 C 40.964844 39.324219 40.859375 39.375 40.777344 39.449219 C 40.695312 39.5 40.621094 39.582031 40.539062 39.632812 C 40.457031 39.71875 40.386719 39.769531 40.300781 39.839844 C 40.21875 39.894531 40.148438 39.945312 40.0625 40.027344 C 39.980469 40.078125 39.910156 40.160156 39.796875 40.214844 C 39.710938 40.265625 39.640625 40.347656 39.558594 40.398438 C 39.476562 40.484375 39.402344 40.535156 39.320312 40.585938 C 39.238281 40.667969 39.164062 40.71875 39.050781 40.773438 C 38.96875 40.855469 38.894531 40.90625 38.8125 40.957031 C 38.730469 41.011719 38.65625 41.09375 38.542969 41.144531 C 38.460938 41.195312 38.386719 41.246094 38.304688 41.332031 C 38.222656 41.382812 38.152344 41.433594 38.035156 41.484375 C 37.953125 41.570312 37.882812 41.621094 37.800781 41.671875 C 37.714844 41.722656 37.644531 41.777344 37.53125 41.859375 C 37.449219 41.910156 37.375 41.960938 37.292969 42.011719 C 37.210938 42.066406 37.105469 42.117188 37.023438 42.167969 C 36.941406 42.21875 36.867188 42.304688 36.785156 42.355469 C 36.683594 42.40625 36.597656 42.457031 36.515625 42.511719 C 36.433594 42.5625 36.359375 42.613281 36.246094 42.664062 C 36.164062 42.714844 36.09375 42.769531 36.007812 42.820312 C 35.925781 42.871094 35.824219 42.921875 35.742188 42.976562 C 35.65625 43.027344 35.585938 43.078125 35.503906 43.128906 C 35.398438 43.183594 35.316406 43.234375 35.234375 43.285156 C 35.152344 43.335938 35.078125 43.390625 34.964844 43.441406 C 33.433594 44.382812 31.789062 45.25 30.074219 46.035156 Z M 30.074219 46.035156 " fill-opacity="1" fill-rule="nonzero"/></g><g clip-path="url(#baa81f3a6d)"><path fill="#ffffff" d="M 22.636719 23.25 C 23.980469 23.539062 25.304688 22.671875 25.59375 21.328125 C 25.882812 19.980469 25.035156 18.636719 23.691406 18.347656 C 22.316406 18.058594 21 18.925781 20.710938 20.269531 C 20.421875 21.617188 21.28125 22.960938 22.636719 23.25 Z M 23.554688 35.816406 C 24.640625 36.023438 25.664062 35.371094 25.902344 34.285156 C 26.140625 33.230469 25.460938 32.175781 24.394531 31.960938 C 23.308594 31.722656 22.285156 32.402344 22.046875 33.46875 C 21.808594 34.523438 22.5 35.578125 23.554688 35.816406 Z M 14.734375 33.757812 C 14.019531 33.625 13.335938 33.757812 12.757812 34.132812 C 12.199219 34.503906 11.785156 35.082031 11.621094 35.765625 C 11.484375 36.480469 11.621094 37.191406 11.992188 37.742188 C 12.363281 38.289062 12.945312 38.714844 13.625 38.878906 C 14.339844 39.035156 15.054688 38.878906 15.601562 38.507812 C 16.160156 38.132812 16.574219 37.585938 16.738281 36.871094 C 16.894531 36.160156 16.738281 35.476562 16.367188 34.898438 C 16.027344 34.347656 15.445312 33.925781 14.734375 33.757812 Z M 10.667969 38.601562 C 11.246094 39.5 12.179688 40.183594 13.304688 40.421875 C 14.441406 40.660156 15.550781 40.421875 16.449219 39.839844 C 16.636719 39.738281 16.824219 39.601562 16.976562 39.449219 L 19.304688 41.320312 C 19.203125 41.527344 19.117188 41.746094 19.066406 41.953125 C 18.746094 43.460938 19.699219 44.929688 21.207031 45.25 C 22.71875 45.570312 24.167969 44.621094 24.507812 43.109375 C 24.828125 41.628906 23.875 40.152344 22.367188 39.832031 C 21.550781 39.644531 20.730469 39.863281 20.089844 40.335938 L 17.792969 38.464844 C 18 38.074219 18.1875 37.667969 18.269531 37.191406 C 18.539062 36.085938 18.300781 34.949219 17.710938 34.046875 C 17.421875 33.605469 17.027344 33.199219 16.605469 32.890625 L 17.980469 30.085938 L 18.03125 30.117188 C 19.511719 30.4375 20.992188 29.488281 21.3125 27.976562 C 21.632812 26.46875 20.679688 25.019531 19.203125 24.675781 C 17.691406 24.355469 16.222656 25.308594 15.902344 26.820312 C 15.664062 27.875 16.058594 28.90625 16.851562 29.539062 L 15.457031 32.34375 C 15.324219 32.289062 15.1875 32.257812 15.085938 32.238281 C 13.945312 32 12.808594 32.238281 11.917969 32.816406 C 11.03125 33.398438 10.335938 34.328125 10.097656 35.457031 C 9.859375 36.582031 10.089844 37.699219 10.667969 38.601562 Z M 23.371094 15.648438 C 26.089844 15.648438 28.28125 17.859375 28.28125 20.582031 L 28.28125 45.664062 C 24.828125 47.113281 21.15625 48.230469 17.558594 48.707031 L 17.453125 48.738281 L 17.320312 48.738281 L 17.214844 48.769531 L 17.082031 48.769531 L 16.976562 48.796875 L 16.84375 48.796875 L 16.738281 48.828125 L 16.605469 48.828125 L 16.5 48.859375 L 16.367188 48.859375 L 16.234375 48.890625 L 16.097656 48.890625 L 15.996094 48.921875 L 15.734375 48.921875 L 15.601562 48.953125 L 15.332031 48.953125 L 15.230469 48.984375 L 14.824219 48.984375 C 14.773438 48.984375 14.722656 48.984375 14.691406 48.984375 L 14.558594 48.984375 C 14.503906 49.015625 14.453125 49.015625 14.421875 49.015625 C 14.371094 49.015625 14.320312 49.015625 14.289062 49.015625 L 14.183594 49.015625 C 14.132812 49.015625 14.082031 49.015625 14.050781 49.015625 C 14 49.015625 13.945312 49.015625 13.914062 49.015625 C 13.863281 49.015625 13.8125 49.015625 13.78125 49.015625 L 13.75 49.015625 C 13.71875 49.015625 13.667969 49.015625 13.617188 49.015625 C 13.585938 49.015625 13.53125 49.015625 13.480469 49.015625 L 13.347656 48.984375 C 13.316406 48.984375 13.265625 48.984375 13.210938 48.984375 C 13.160156 48.984375 13.128906 48.984375 13.078125 48.984375 C 13.027344 48.984375 12.996094 48.984375 12.945312 48.984375 L 12.808594 48.984375 C 12.757812 48.953125 12.707031 48.953125 12.675781 48.953125 C 12.621094 48.953125 12.570312 48.953125 12.539062 48.953125 C 12.488281 48.953125 12.4375 48.953125 12.40625 48.953125 C 12.355469 48.921875 12.300781 48.921875 12.25 48.921875 C 12.21875 48.921875 12.167969 48.921875 12.117188 48.921875 C 12.085938 48.921875 12.035156 48.890625 11.980469 48.890625 C 11.949219 48.890625 11.898438 48.890625 11.847656 48.890625 C 11.796875 48.859375 11.765625 48.859375 11.710938 48.859375 C 11.660156 48.859375 11.628906 48.859375 11.578125 48.859375 C 11.527344 48.828125 11.496094 48.828125 11.445312 48.828125 C 11.390625 48.828125 11.359375 48.796875 11.308594 48.796875 C 11.257812 48.796875 11.226562 48.796875 11.175781 48.769531 C 11.121094 48.769531 11.09375 48.769531 11.039062 48.769531 C 10.988281 48.738281 10.957031 48.738281 10.90625 48.738281 C 10.855469 48.738281 10.824219 48.707031 10.769531 48.707031 C 10.71875 48.707031 10.6875 48.675781 10.636719 48.675781 C 10.585938 48.675781 10.554688 48.644531 10.503906 48.644531 C 10.449219 48.644531 10.417969 48.613281 10.367188 48.613281 C 10.316406 48.613281 10.285156 48.582031 10.234375 48.582031 C 10.183594 48.582031 10.152344 48.550781 10.097656 48.550781 C 10.046875 48.550781 10.015625 48.519531 9.964844 48.519531 C 9.933594 48.488281 9.882812 48.488281 9.828125 48.488281 C 9.800781 48.457031 9.746094 48.457031 9.726562 48.4375 C 9.675781 48.4375 9.625 48.4375 9.59375 48.40625 C 9.539062 48.40625 9.507812 48.375 9.457031 48.375 C 9.40625 48.34375 9.375 48.34375 9.324219 48.324219 C 9.292969 48.324219 9.242188 48.292969 9.1875 48.292969 C 9.003906 47.578125 8.898438 46.8125 8.898438 46.015625 C 8.898438 45.148438 9.035156 44.277344 9.269531 43.480469 C 10.191406 43.566406 11.226562 43.398438 11.226562 43.398438 C 8.640625 41.867188 6.921875 39.066406 6.921875 35.847656 C 6.921875 32.921875 8.351562 30.304688 10.5625 28.722656 C 11.515625 30.097656 13.863281 29.777344 13.863281 29.777344 C 12.652344 28.878906 11.886719 27.449219 11.886719 25.816406 C 11.886719 23.125 14.082031 20.902344 16.800781 20.902344 C 16.832031 20.902344 16.851562 20.902344 16.90625 20.902344 C 17.328125 22.144531 18.910156 22.773438 18.910156 22.773438 C 18.570312 22.113281 18.351562 21.347656 18.351562 20.53125 C 18.4375 17.859375 20.648438 15.648438 23.371094 15.648438 Z M 23.371094 15.648438 " fill-opacity="1" fill-rule="nonzero"/></g><g clip-path="url(#c59450c358)"><path fill="#2e9ddd" d="M 35.730469 23.25 C 34.386719 23.539062 33.039062 22.671875 32.75 21.328125 C 32.460938 19.980469 33.332031 18.636719 34.675781 18.347656 C 36.019531 18.058594 37.363281 18.925781 37.652344 20.269531 C 37.945312 21.617188 37.074219 22.960938 35.730469 23.25 Z M 34.777344 35.816406 C 33.722656 36.023438 32.667969 35.371094 32.429688 34.285156 C 32.222656 33.230469 32.90625 32.175781 33.960938 31.960938 C 35.015625 31.722656 36.070312 32.402344 36.289062 33.46875 C 36.515625 34.523438 35.832031 35.578125 34.777344 35.816406 Z M 41.699219 37.222656 C 41.667969 37.121094 41.648438 36.988281 41.617188 36.882812 C 41.460938 36.167969 41.617188 35.488281 41.957031 34.90625 C 42.328125 34.347656 42.910156 33.933594 43.621094 33.769531 C 44.066406 33.667969 44.542969 33.71875 44.96875 33.851562 L 44.9375 33.882812 C 44.882812 33.964844 44.800781 34.039062 44.75 34.121094 C 44.667969 34.203125 44.617188 34.253906 44.542969 34.328125 C 44.492188 34.410156 44.410156 34.484375 44.335938 34.566406 C 44.285156 34.648438 44.203125 34.722656 44.148438 34.804688 C 44.066406 34.886719 44.015625 34.960938 43.941406 35.011719 C 43.859375 35.09375 43.808594 35.164062 43.734375 35.25 C 43.652344 35.332031 43.601562 35.402344 43.53125 35.457031 C 43.445312 35.539062 43.394531 35.609375 43.324219 35.695312 C 43.238281 35.777344 43.167969 35.828125 43.117188 35.898438 C 43.03125 35.984375 42.960938 36.054688 42.878906 36.105469 C 42.824219 36.191406 42.742188 36.261719 42.671875 36.34375 C 42.589844 36.398438 42.535156 36.480469 42.464844 36.550781 C 42.382812 36.605469 42.308594 36.6875 42.226562 36.757812 C 42.144531 36.808594 42.089844 36.894531 42.019531 36.964844 C 41.9375 37.015625 41.863281 37.101562 41.78125 37.171875 Z M 34.984375 15.648438 C 32.265625 15.648438 30.074219 17.859375 30.074219 20.582031 L 30.074219 44.847656 C 31.367188 44.238281 32.605469 43.605469 33.828125 42.921875 C 33.621094 41.496094 34.5625 40.121094 35.988281 39.832031 C 36.722656 39.675781 37.4375 39.800781 38.046875 40.203125 L 38.183594 40.101562 C 38.265625 40.015625 38.335938 39.964844 38.417969 39.914062 C 38.503906 39.863281 38.574219 39.777344 38.65625 39.726562 C 38.761719 39.675781 38.84375 39.59375 38.925781 39.542969 C 39.007812 39.488281 39.082031 39.40625 39.164062 39.355469 C 39.246094 39.304688 39.320312 39.21875 39.402344 39.167969 C 39.484375 39.085938 39.558594 39.035156 39.640625 38.984375 C 39.722656 38.898438 39.796875 38.847656 39.878906 38.777344 C 39.960938 38.722656 40.03125 38.640625 40.117188 38.589844 C 40.199219 38.539062 40.269531 38.457031 40.355469 38.402344 L 40.457031 38.300781 C 40.300781 37.957031 40.136719 37.585938 40.0625 37.191406 C 39.828125 36.085938 40.0625 34.949219 40.644531 34.046875 C 40.933594 33.605469 41.304688 33.199219 41.75 32.890625 L 40.375 30.085938 L 40.324219 30.117188 C 38.8125 30.4375 37.363281 29.488281 37.023438 27.976562 C 36.703125 26.46875 37.652344 25.019531 39.164062 24.675781 C 40.675781 24.355469 42.121094 25.308594 42.464844 26.820312 C 42.671875 27.875 42.277344 28.90625 41.511719 29.539062 L 42.886719 32.34375 C 43.023438 32.289062 43.15625 32.257812 43.28125 32.238281 C 44.234375 32.03125 45.183594 32.15625 45.96875 32.558594 L 46.074219 32.425781 C 46.125 32.34375 46.175781 32.269531 46.230469 32.1875 C 46.3125 32.105469 46.363281 32.03125 46.414062 31.917969 C 46.46875 31.835938 46.519531 31.761719 46.601562 31.679688 C 46.652344 31.597656 46.703125 31.523438 46.757812 31.441406 C 46.808594 31.339844 46.859375 31.257812 46.910156 31.171875 C 46.964844 31.089844 47.015625 31.019531 47.066406 30.90625 C 47.117188 30.820312 47.171875 30.75 47.222656 30.667969 C 47.273438 30.5625 47.324219 30.480469 47.378906 30.398438 C 47.429688 30.316406 47.480469 30.210938 47.53125 30.128906 C 47.585938 30.046875 47.636719 29.972656 47.667969 29.859375 C 47.71875 29.777344 47.769531 29.703125 47.820312 29.589844 C 47.875 29.507812 47.90625 29.433594 47.957031 29.320312 C 48.007812 29.238281 48.058594 29.167969 48.089844 29.054688 C 47.957031 28.949219 47.820312 28.847656 47.667969 28.730469 C 46.714844 30.109375 44.386719 29.789062 44.386719 29.789062 C 45.578125 28.886719 46.363281 27.460938 46.363281 25.824219 C 46.363281 23.136719 44.148438 20.914062 41.449219 20.914062 C 41.398438 20.914062 41.367188 20.914062 41.347656 20.914062 C 40.921875 22.152344 39.308594 22.785156 39.308594 22.785156 C 39.679688 22.121094 39.867188 21.355469 39.867188 20.539062 C 39.898438 17.859375 37.707031 15.648438 34.984375 15.648438 Z M 34.984375 15.648438 " fill-opacity="1" fill-rule="nonzero"/></g><g clip-path="url(#b9116b6e83)"><path fill="#ff3131" d="M 48.617188 16.890625 C 51.597656 19.691406 51.441406 23.675781 49.992188 27.5 C 47.40625 34.339844 41.148438 39.832031 34.996094 43.480469 C 29.875 46.523438 23.667969 48.972656 17.722656 49.769531 C 13.554688 50.351562 7.84375 50.277344 4.863281 46.8125 C 3.675781 45.4375 3.128906 43.75 3.042969 41.953125 C 3.011719 41.371094 3.042969 40.761719 3.097656 40.183594 C 2.859375 40.761719 2.652344 41.339844 2.484375 41.953125 C 1.246094 46.203125 2.25 49.738281 6.074219 52.171875 C 6.550781 52.492188 7.046875 52.75 7.585938 52.988281 C 9.539062 53.910156 11.652344 54.332031 13.792969 54.414062 C 16.171875 54.496094 18.570312 54.144531 20.898438 53.566406 C 26.121094 52.273438 31.25 49.707031 35.710938 46.75 C 40.914062 43.316406 46.136719 38.746094 49.757812 33.625 C 51.183594 31.617188 52.527344 29.320312 53.210938 26.941406 C 53.738281 25.121094 53.945312 23.117188 53.261719 21.296875 C 52.496094 19.183594 50.726562 17.808594 48.617188 16.890625 Z M 48.617188 16.890625 " fill-opacity="1" fill-rule="nonzero"/></g></svg>